<svg xmlns="http://www.w3.org/2000/svg" xmlns:xlink="http://www.w3.org/1999/xlink" width="500" zoomAndPan="magnify" viewBox="0 0 375 374.999991" height="500" preserveAspectRatio="xMidYMid meet" version="1.0"><path fill="#0d0d0d" d="M 225.421875 99.167969 C 228.855469 88.191406 233.519531 77.773438 239.421875 67.90625 C 225.996094 62.011719 211.96875 58.546875 197.339844 57.511719 L 197.339844 100.953125 C 206.292969 101.261719 215.324219 102.007812 224.269531 103.179688 C 224.640625 101.835938 225.023438 100.488281 225.421875 99.167969 Z M 225.421875 99.167969 " fill-opacity="1" fill-rule="nonzero"/><path fill="#0d0d0d" d="M 316.5 185.632812 C 316.5 189.011719 316.375 192.363281 316.09375 195.695312 L 274.050781 195.695312 C 268.3125 183.34375 260.894531 172.101562 251.800781 161.964844 C 251.75 161.90625 251.722656 161.859375 251.671875 161.839844 C 251.421875 161.558594 251.167969 161.25 250.972656 160.941406 C 250.589844 160.488281 250.273438 160.054688 249.882812 159.597656 C 249.046875 158.5625 248.265625 157.488281 247.542969 156.371094 C 247.03125 155.609375 246.550781 154.816406 246.09375 154.03125 C 245.710938 153.425781 245.394531 152.808594 245.074219 152.199219 C 244.925781 151.945312 244.773438 151.667969 244.644531 151.414062 C 244.519531 151.164062 244.335938 150.804688 244.210938 150.5 C 243.882812 149.796875 243.574219 149.148438 243.292969 148.441406 C 243.140625 148.109375 242.992188 147.738281 242.859375 147.425781 L 242.484375 146.355469 C 242.40625 146.179688 242.355469 146.023438 242.28125 145.84375 C 242.203125 145.660156 242.152344 145.492188 242.097656 145.3125 C 242.042969 145.128906 241.972656 144.933594 241.921875 144.730469 C 241.773438 144.328125 241.644531 143.921875 241.542969 143.503906 C 241.390625 143.023438 241.265625 142.539062 241.132812 142.054688 C 240.90625 141.320312 240.722656 140.578125 240.578125 139.824219 C 240.425781 139.125 240.269531 138.347656 240.144531 137.609375 C 240.066406 137.148438 240.019531 136.695312 239.960938 136.210938 C 239.90625 135.726562 239.816406 135.113281 239.738281 134.558594 C 239.738281 134.40625 239.738281 134.25 239.683594 134.097656 C 239.636719 133.820312 239.613281 133.539062 239.613281 133.257812 C 239.339844 130.277344 239.292969 127.296875 239.480469 124.3125 C 261.164062 128.714844 282.105469 135.445312 302.296875 144.5 L 306.316406 146.296875 C 307.503906 146.835938 308.675781 147.417969 309.871094 147.949219 C 310.277344 148.125 310.65625 148.308594 311.039062 148.511719 C 314.703125 160.613281 316.523438 172.988281 316.5 185.632812 Z M 316.5 185.632812 " fill-opacity="1" fill-rule="nonzero"/><path fill="#0d0d0d" d="M 255.902344 76.613281 C 250.476562 85.53125 246.207031 94.972656 243.089844 104.933594 C 242.957031 105.363281 242.832031 105.796875 242.707031 106.230469 C 262.550781 110.210938 281.832031 116.042969 300.554688 123.730469 C 297.910156 118.933594 294.972656 114.324219 291.742188 109.90625 C 288.511719 105.484375 285.011719 101.285156 281.246094 97.3125 C 277.480469 93.335938 273.476562 89.617188 269.234375 86.152344 C 264.992188 82.691406 260.546875 79.511719 255.902344 76.613281 Z M 255.902344 76.613281 " fill-opacity="1" fill-rule="nonzero"/><path fill="#0d0d0d" d="M 253.234375 195.695312 L 197.359375 195.695312 L 197.359375 119.398438 C 205.214844 119.675781 213.167969 120.308594 221.078125 121.328125 C 220.847656 124.179688 220.769531 127.03125 220.84375 129.890625 L 220.84375 130.273438 C 220.84375 130.679688 220.84375 131.085938 220.894531 131.472656 C 220.949219 132.410156 221 133.347656 221.078125 134.273438 C 221.078125 134.398438 221.078125 134.523438 221.078125 134.648438 C 221.078125 134.929688 221.152344 135.238281 221.179688 135.539062 C 221.335938 137.066406 221.511719 138.5625 221.761719 140.066406 C 221.761719 140.320312 221.839844 140.550781 221.867188 140.769531 C 221.945312 141.273438 222.042969 141.804688 222.148438 142.316406 C 222.253906 142.824219 222.351562 143.359375 222.476562 143.871094 C 223.03125 146.410156 223.730469 148.90625 224.578125 151.367188 C 224.578125 151.414062 224.578125 151.441406 224.578125 151.492188 C 224.757812 151.945312 224.90625 152.359375 225.058594 152.816406 C 225.757812 154.59375 226.460938 156.351562 227.242188 158.050781 C 227.242188 158.050781 227.242188 158.050781 227.242188 158.101562 C 229.988281 163.960938 233.515625 169.304688 237.820312 174.136719 C 243.746094 180.761719 248.886719 187.945312 253.234375 195.695312 Z M 253.234375 195.695312 " fill-opacity="1" fill-rule="nonzero"/><path fill="#0d0d0d" d="M 136.859375 135.320312 C 136.65625 136.871094 136.398438 138.394531 136.070312 139.898438 C 134.738281 146.199219 132.230469 151.988281 128.542969 157.265625 C 127.84375 158.261719 127.144531 159.25 126.359375 160.191406 C 125.875 160.800781 125.367188 161.382812 124.863281 161.972656 C 122.980469 164.070312 121.171875 166.242188 119.472656 168.402344 L 118.273438 169.867188 C 118.207031 169.945312 118.148438 170.027344 118.097656 170.121094 C 118.042969 170.121094 118.023438 170.195312 117.996094 170.222656 L 117.917969 170.351562 C 117.882812 170.414062 117.84375 170.472656 117.792969 170.523438 C 111.785156 178.339844 106.71875 186.71875 102.585938 195.667969 L 60.035156 195.667969 C 59.753906 192.335938 59.628906 188.984375 59.628906 185.601562 C 59.628906 173.566406 61.28125 161.761719 64.585938 150.191406 C 64.96875 149.988281 65.375 149.785156 65.753906 149.601562 C 68.070312 148.382812 70.410156 147.214844 72.753906 146.101562 C 73.335938 145.792969 73.921875 145.515625 74.511719 145.234375 C 75.097656 144.953125 75.699219 144.675781 76.289062 144.421875 C 78.578125 143.332031 80.886719 142.320312 83.199219 141.292969 C 87.242188 139.542969 91.359375 137.863281 95.503906 136.316406 C 97.511719 135.523438 99.570312 134.789062 101.609375 134.078125 C 103.007812 133.59375 104.40625 133.109375 105.808594 132.675781 L 109.460938 131.480469 C 109.921875 131.324219 110.378906 131.199219 110.863281 131.046875 L 112.464844 130.5625 C 116.28125 129.421875 120.164062 128.351562 124.007812 127.363281 C 128.324219 126.261719 132.714844 125.269531 137.175781 124.386719 C 137.402344 128.042969 137.296875 131.6875 136.859375 135.320312 Z M 136.859375 135.320312 " fill-opacity="1" fill-rule="nonzero"/><path fill="#0d0d0d" d="M 178.777344 57.53125 C 164.304688 58.550781 150.417969 61.953125 137.113281 67.738281 C 143.066406 77.652344 147.773438 88.128906 151.238281 99.167969 C 151.621094 100.4375 151.992188 101.730469 152.351562 103.050781 C 161.09375 101.933594 169.960938 101.21875 178.777344 100.953125 Z M 178.777344 57.53125 " fill-opacity="1" fill-rule="nonzero"/><path fill="#0d0d0d" d="M 178.777344 119.410156 L 178.777344 195.710938 L 123.433594 195.710938 C 127.761719 188.007812 132.871094 180.863281 138.761719 174.277344 C 144.65625 167.65625 149.054688 160.160156 151.957031 151.785156 C 152.335938 150.636719 152.722656 149.496094 153.023438 148.347656 C 153.097656 148.144531 153.148438 147.921875 153.226562 147.710938 C 153.300781 147.503906 153.332031 147.257812 153.40625 147.011719 C 153.484375 146.765625 153.5625 146.402344 153.632812 146.101562 C 153.703125 145.800781 153.765625 145.589844 153.8125 145.339844 C 153.863281 145.085938 153.988281 144.640625 154.066406 144.296875 C 154.121094 144.085938 154.164062 143.875 154.191406 143.660156 C 154.246094 143.484375 154.269531 143.332031 154.316406 143.175781 C 154.367188 143.023438 154.394531 142.769531 154.421875 142.59375 C 154.578125 141.851562 154.703125 141.144531 154.828125 140.402344 C 155.03125 139.160156 155.214844 137.914062 155.339844 136.667969 C 155.386719 136.386719 155.417969 136.132812 155.4375 135.882812 C 155.46875 135.648438 155.484375 135.417969 155.488281 135.183594 C 155.539062 134.847656 155.566406 134.507812 155.5625 134.167969 C 155.578125 134.097656 155.578125 134.027344 155.5625 133.957031 C 155.613281 133.585938 155.636719 133.21875 155.640625 132.84375 C 155.640625 132.585938 155.640625 132.359375 155.691406 132.101562 L 155.691406 131.957031 C 155.867188 128.410156 155.816406 124.867188 155.535156 121.328125 C 163.269531 120.347656 171.074219 119.710938 178.777344 119.410156 Z M 178.777344 119.410156 " fill-opacity="1" fill-rule="nonzero"/><path fill="#0d0d0d" d="M 75.148438 124.472656 C 89.308594 118.3125 103.867188 113.316406 118.828125 109.492188 C 123.761719 108.230469 128.824219 107.089844 133.90625 106.082031 C 133.792969 105.699219 133.679688 105.3125 133.5625 104.933594 C 130.421875 94.882812 126.105469 85.363281 120.613281 76.375 C 115.859375 79.308594 111.316406 82.539062 106.984375 86.066406 C 102.652344 89.59375 98.566406 93.386719 94.730469 97.445312 C 90.894531 101.507812 87.335938 105.796875 84.058594 110.320312 C 80.78125 114.84375 77.808594 119.5625 75.148438 124.472656 Z M 75.148438 124.472656 " fill-opacity="1" fill-rule="nonzero"/><path fill="#0d0d0d" d="M 250.035156 87.40625 C 247.257812 93.058594 244.945312 98.890625 243.089844 104.90625 C 242.957031 105.335938 242.832031 105.769531 242.707031 106.203125 C 262.550781 110.183594 281.832031 116.015625 300.554688 123.703125 C 298.511719 119.992188 296.292969 116.40625 293.90625 112.941406 C 251.863281 104.347656 250.054688 87.652344 250.035156 87.40625 Z M 250.035156 87.40625 " fill-opacity="1" fill-rule="nonzero"/><path fill="#0d0d0d" d="M 225.421875 99.167969 C 227.015625 93.992188 228.914062 88.929688 231.121094 83.984375 C 214.902344 87.414062 203.554688 83.726562 197.347656 80.484375 L 197.347656 100.9375 C 206.300781 101.246094 215.328125 101.996094 224.277344 103.164062 C 224.640625 101.835938 225.023438 100.488281 225.421875 99.167969 Z M 225.421875 99.167969 " fill-opacity="1" fill-rule="nonzero"/><path fill="#0d0d0d" d="M 152.351562 103.074219 C 161.09375 101.953125 169.960938 101.238281 178.777344 100.972656 L 178.777344 80.265625 C 169.675781 86.519531 156.1875 86.40625 146.015625 85.0625 C 148.015625 89.667969 149.753906 94.371094 151.238281 99.167969 C 151.625 100.449219 151.996094 101.753906 152.351562 103.074219 Z M 152.351562 103.074219 " fill-opacity="1" fill-rule="nonzero"/><path fill="#0d0d0d" d="M 118.800781 109.492188 C 123.734375 108.230469 128.796875 107.089844 133.878906 106.082031 C 133.765625 105.699219 133.652344 105.3125 133.535156 104.933594 C 131.910156 99.628906 129.921875 94.464844 127.5625 89.445312 C 116.363281 104.1875 93.507812 110.023438 82.839844 112.019531 C 80.039062 116.027344 77.472656 120.175781 75.140625 124.472656 C 89.292969 118.3125 103.847656 113.320312 118.800781 109.492188 Z M 118.800781 109.492188 " fill-opacity="1" fill-rule="nonzero"/><path fill="#0d0d0d" d="M 169.320312 195.695312 L 148.78125 195.695312 C 151.449219 178.195312 160.46875 179.246094 160.46875 179.246094 C 164.207031 178.078125 167.539062 185.351562 169.320312 195.695312 Z M 169.320312 195.695312 " fill-opacity="1" fill-rule="nonzero"/><path fill="#0d0d0d" d="M 80.214844 164.679688 C 82.601562 162.007812 84.863281 159.21875 87.082031 156.398438 C 90.261719 152.347656 95.484375 146.886719 100.496094 146.886719 C 108.453125 146.886719 112.171875 153.789062 106.332031 160.683594 C 100.496094 167.578125 88.832031 183.503906 86.691406 192.527344 C 84.667969 201.148438 55.511719 192.332031 80.214844 164.679688 Z M 80.214844 164.679688 " fill-opacity="1" fill-rule="nonzero"/><path fill="#0d0d0d" d="M 255.902344 76.613281 C 255.265625 77.664062 254.535156 78.902344 253.746094 80.300781 C 253.746094 80.300781 262.886719 98.25 286.5 103.191406 C 277.707031 92.714844 267.507812 83.851562 255.902344 76.613281 Z M 255.902344 76.613281 " fill-opacity="1" fill-rule="nonzero"/><path fill="#0d0d0d" d="M 123.753906 81.84375 C 122.59375 79.699219 121.507812 77.851562 120.613281 76.375 C 110.152344 82.847656 100.804688 90.65625 92.578125 99.804688 C 99.898438 98.78125 116.160156 95.066406 123.753906 81.84375 Z M 123.753906 81.84375 " fill-opacity="1" fill-rule="nonzero"/><path fill="#0d0d0d" d="M 137.113281 67.738281 C 137.886719 69.039062 138.742188 70.539062 139.644531 72.148438 C 139.644531 72.148438 166.832031 78.804688 178.777344 62.425781 L 178.777344 57.523438 C 164.304688 58.546875 150.414062 61.949219 137.113281 67.738281 Z M 137.113281 67.738281 " fill-opacity="1" fill-rule="nonzero"/><path fill="#0d0d0d" d="M 236.890625 72.355469 C 237.792969 70.710938 238.652344 69.226562 239.429688 67.917969 C 226.003906 62.023438 211.976562 58.558594 197.347656 57.523438 L 197.347656 62.425781 C 197.347656 62.425781 210.351562 80.097656 236.890625 72.355469 Z M 236.890625 72.355469 " fill-opacity="1" fill-rule="nonzero"/><path fill="#0d0d0d" d="M 227.300781 195.695312 L 206.789062 195.695312 C 208.566406 185.351562 211.890625 178.078125 215.628906 179.246094 C 215.660156 179.246094 224.6875 178.203125 227.300781 195.695312 Z M 227.300781 195.695312 " fill-opacity="1" fill-rule="nonzero"/><path fill="#0d0d0d" d="M 295.898438 164.679688 C 293.511719 162.007812 291.25 159.21875 289.039062 156.398438 C 285.855469 152.347656 280.640625 146.886719 275.628906 146.886719 C 267.660156 146.886719 263.953125 153.789062 269.789062 160.683594 C 275.628906 167.578125 287.289062 183.503906 289.390625 192.527344 C 291.460938 201.148438 320.617188 192.332031 295.898438 164.679688 Z M 295.898438 164.679688 " fill-opacity="1" fill-rule="nonzero"/><path fill="#0d0d0d" d="M 197.347656 160.117188 C 197.347656 160.117188 213.503906 138.757812 227.320312 158.210938 C 222.160156 147.195312 220.035156 134.726562 221.082031 121.34375 C 213.171875 120.335938 205.214844 119.683594 197.347656 119.402344 Z M 197.347656 160.117188 " fill-opacity="1" fill-rule="nonzero"/><path fill="#0d0d0d" d="M 306.28125 146.328125 L 302.277344 144.519531 C 282.082031 135.480469 261.136719 128.761719 239.453125 124.367188 C 238.597656 139.066406 242.707031 151.667969 251.695312 161.851562 L 251.75 161.773438 C 251.75 161.773438 227.074219 118.191406 309.851562 148.027344 C 308.667969 147.4375 307.480469 146.871094 306.28125 146.328125 Z M 306.28125 146.328125 " fill-opacity="1" fill-rule="nonzero"/><path fill="#0d0d0d" d="M 155.570312 121.335938 C 156.027344 126.476562 155.949219 131.609375 155.339844 136.734375 C 154.730469 141.859375 153.601562 146.867188 151.953125 151.757812 C 151.953125 151.757812 175.324219 138.316406 178.777344 162.503906 L 178.777344 119.417969 C 171.0625 119.707031 163.285156 120.347656 155.570312 121.335938 Z M 155.570312 121.335938 " fill-opacity="1" fill-rule="nonzero"/><path fill="#0d0d0d" d="M 125.433594 143.167969 C 129.363281 154.460938 119.316406 168.507812 117.785156 170.558594 C 120.007812 167.648438 122.359375 164.78125 124.847656 161.964844 C 133.949219 151.714844 138.054688 139.082031 137.203125 124.359375 C 132.757812 125.25 128.332031 126.25 124.007812 127.34375 C 103.714844 132.484375 84.296875 139.910156 65.753906 149.625 C 74.382812 146.824219 121.597656 132.066406 125.433594 143.167969 Z M 125.433594 143.167969 " fill-opacity="1" fill-rule="nonzero"/><path fill="#0d0d0d" d="M 188.097656 3.265625 C 85.835938 3.265625 2.914062 86.1875 2.914062 188.453125 C 2.914062 290.714844 85.816406 373.652344 188.097656 373.652344 C 290.382812 373.652344 373.3125 290.730469 373.3125 188.4375 C 373.3125 86.148438 290.371094 3.265625 188.097656 3.265625 Z M 188.097656 355.722656 C 95.75 355.722656 20.855469 280.824219 20.855469 188.425781 C 20.855469 96.023438 95.699219 21.203125 188.097656 21.203125 C 280.5 21.203125 355.398438 96.101562 355.398438 188.4375 C 355.398438 280.773438 280.457031 355.710938 188.097656 355.710938 Z M 188.097656 355.722656 " fill-opacity="1" fill-rule="nonzero"/><path fill="#0d0d0d" d="M 175.15625 218.566406 L 201.027344 218.566406 L 201.027344 320.367188 L 175.15625 320.367188 Z M 175.15625 218.566406 " fill-opacity="1" fill-rule="nonzero"/><path fill="#e9580b" d="M 175.15625 269.464844 L 201.027344 269.464844 L 201.027344 320.367188 L 175.15625 320.367188 Z M 175.15625 269.464844 " fill-opacity="1" fill-rule="nonzero"/><path fill="#0d0d0d" d="M 98.171875 218.566406 L 124.042969 218.566406 L 124.042969 288.609375 L 98.171875 288.609375 Z M 98.171875 218.566406 " fill-opacity="1" fill-rule="nonzero"/><path fill="#e9580b" d="M 98.171875 260.488281 L 124.042969 260.488281 L 124.042969 288.609375 L 98.171875 288.609375 Z M 98.171875 260.488281 " fill-opacity="1" fill-rule="nonzero"/><path fill="#e9580b" d="M 69.800781 263.140625 L 69.863281 263.34375 C 69.863281 263.273438 69.8125 263.207031 69.792969 263.140625 Z M 69.800781 263.140625 " fill-opacity="1" fill-rule="nonzero"/><path fill="#0d0d0d" d="M 59.675781 218.566406 L 85.550781 218.566406 L 85.550781 250.386719 L 59.675781 250.386719 Z M 59.675781 218.566406 " fill-opacity="1" fill-rule="nonzero"/><path fill="#e9580b" d="M 59.675781 234.476562 L 85.550781 234.476562 L 85.550781 250.757812 L 59.675781 250.757812 Z M 59.675781 234.476562 " fill-opacity="1" fill-rule="nonzero"/><path fill="#0d0d0d" d="M 213.648438 218.566406 L 239.523438 218.566406 L 239.523438 305.773438 L 213.648438 305.773438 Z M 213.648438 218.566406 " fill-opacity="1" fill-rule="nonzero"/><path fill="#e9580b" d="M 213.648438 260.558594 L 239.523438 260.558594 L 239.523438 305.773438 L 213.648438 305.773438 Z M 213.648438 260.558594 " fill-opacity="1" fill-rule="nonzero"/><path fill="#e27b30" d="M 213.648438 283.167969 L 239.523438 283.167969 L 239.523438 305.773438 L 213.648438 305.773438 Z M 213.648438 283.167969 " fill-opacity="1" fill-rule="nonzero"/><path fill="#0d0d0d" d="M 252.140625 218.566406 L 278.015625 218.566406 L 278.015625 285.09375 L 252.140625 285.09375 Z M 252.140625 218.566406 " fill-opacity="1" fill-rule="nonzero"/><path fill="#e9580b" d="M 252.140625 250.003906 L 278.015625 250.003906 L 278.015625 285.09375 L 252.140625 285.09375 Z M 252.140625 250.003906 " fill-opacity="1" fill-rule="nonzero"/><path fill="#e27b30" d="M 252.140625 267.546875 L 278.015625 267.546875 L 278.015625 285.085938 L 252.140625 285.085938 Z M 252.140625 267.546875 " fill-opacity="1" fill-rule="nonzero"/><path fill="#0d0d0d" d="M 290.628906 218.566406 L 316.5 218.566406 L 316.5 233.253906 L 290.628906 233.253906 Z M 290.628906 218.566406 " fill-opacity="1" fill-rule="nonzero"/><path fill="#0d0d0d" d="M 136.664062 218.566406 L 162.535156 218.566406 L 162.535156 310.757812 L 136.664062 310.757812 Z M 136.664062 218.566406 " fill-opacity="1" fill-rule="nonzero"/><path fill="#e9580b" d="M 136.664062 280.382812 L 162.535156 280.382812 L 162.535156 310.75 L 136.664062 310.75 Z M 136.664062 280.382812 " fill-opacity="1" fill-rule="nonzero"/><path fill="#e27b30" d="M 136.664062 298.871094 L 162.535156 298.871094 L 162.535156 310.75 L 136.664062 310.75 Z M 136.664062 298.871094 " fill-opacity="1" fill-rule="nonzero"/><path fill="#e27b30" d="M 175.15625 300.851562 L 201.027344 300.851562 L 201.027344 320.367188 L 175.15625 320.367188 Z M 175.15625 300.851562 " fill-opacity="1" fill-rule="nonzero"/></svg>