<svg xmlns="http://www.w3.org/2000/svg" xmlns:xlink="http://www.w3.org/1999/xlink" width="500" zoomAndPan="magnify" viewBox="0 0 375 374.999991" height="500" preserveAspectRatio="xMidYMid meet" version="1.0"><rect x="-37.5" width="450" fill="#ffffff" y="-37.499999" height="449.999989" fill-opacity="1"/><rect x="-37.5" width="450" fill="#ffffff" y="-37.499999" height="449.999989" fill-opacity="1"/><path fill="#e9580b" d="M 205.996094 134.269531 C 208.347656 126.765625 211.542969 119.640625 215.582031 112.894531 C 206.394531 108.863281 196.800781 106.492188 186.792969 105.789062 L 186.792969 135.488281 C 192.914062 135.695312 199.09375 136.207031 205.210938 137.007812 C 205.460938 136.074219 205.722656 135.160156 205.996094 134.269531 Z M 205.996094 134.269531 " fill-opacity="1" fill-rule="nonzero"/><path fill="#e9580b" d="M 268.304688 193.359375 C 268.304688 195.667969 268.214844 197.980469 268.027344 200.242188 L 239.265625 200.242188 C 235.339844 191.796875 230.265625 184.109375 224.046875 177.179688 C 224.015625 177.148438 223.996094 177.109375 223.960938 177.097656 C 223.789062 176.902344 223.613281 176.695312 223.457031 176.484375 C 223.195312 176.171875 222.953125 175.875 222.707031 175.5625 C 222.132812 174.851562 221.597656 174.101562 221.109375 173.359375 C 220.761719 172.839844 220.429688 172.296875 220.117188 171.757812 C 219.863281 171.351562 219.632812 170.933594 219.421875 170.507812 C 219.320312 170.335938 219.214844 170.140625 219.125 169.96875 C 219.039062 169.800781 218.917969 169.550781 218.828125 169.34375 C 218.601562 168.878906 218.394531 168.417969 218.207031 167.933594 C 218.097656 167.707031 217.996094 167.472656 217.910156 167.242188 L 217.648438 166.511719 C 217.597656 166.386719 217.558594 166.285156 217.507812 166.164062 C 217.457031 166.042969 217.421875 165.921875 217.386719 165.800781 C 217.339844 165.667969 217.300781 165.535156 217.269531 165.398438 C 217.164062 165.125 217.074219 164.847656 217.003906 164.5625 C 216.902344 164.234375 216.816406 163.902344 216.726562 163.574219 C 216.574219 163.070312 216.445312 162.5625 216.34375 162.046875 C 216.238281 161.554688 216.136719 161.035156 216.046875 160.53125 C 215.996094 160.222656 215.960938 159.90625 215.925781 159.605469 C 215.894531 159.308594 215.820312 158.859375 215.769531 158.480469 C 215.769531 158.375 215.769531 158.269531 215.734375 158.167969 C 215.699219 157.976562 215.683594 157.785156 215.683594 157.59375 C 215.496094 155.554688 215.46875 153.515625 215.59375 151.476562 C 230.425781 154.488281 244.746094 159.089844 258.558594 165.277344 L 261.300781 166.511719 C 262.121094 166.875 262.917969 167.277344 263.738281 167.644531 C 264.015625 167.765625 264.277344 167.886719 264.535156 168.027344 C 267.046875 176.285156 268.304688 184.730469 268.304688 193.359375 Z M 268.304688 193.359375 " fill-opacity="1" fill-rule="nonzero"/><path fill="#e9580b" d="M 226.847656 118.835938 C 223.132812 124.929688 220.207031 131.382812 218.066406 138.195312 C 217.980469 138.488281 217.890625 138.78125 217.808594 139.078125 C 231.378906 141.796875 244.570312 145.773438 257.378906 151.019531 C 253.75 144.4375 249.347656 138.421875 244.175781 132.972656 C 239.003906 127.519531 233.226562 122.808594 226.847656 118.835938 Z M 226.847656 118.835938 " fill-opacity="1" fill-rule="nonzero"/><path fill="#e9580b" d="M 225.023438 200.242188 L 186.800781 200.242188 L 186.800781 148.089844 C 192.171875 148.277344 197.613281 148.714844 203.019531 149.410156 C 202.867188 151.359375 202.816406 153.3125 202.867188 155.265625 L 202.867188 155.53125 C 202.867188 155.808594 202.867188 156.082031 202.902344 156.34375 C 202.9375 156.988281 202.96875 157.628906 203.019531 158.273438 C 203.019531 158.359375 203.019531 158.449219 203.019531 158.535156 C 203.019531 158.726562 203.078125 158.933594 203.089844 159.140625 C 203.195312 160.183594 203.316406 161.210938 203.492188 162.234375 C 203.492188 162.410156 203.542969 162.566406 203.5625 162.738281 C 203.613281 163.085938 203.683594 163.449219 203.75 163.800781 C 203.820312 164.152344 203.890625 164.511719 203.976562 164.859375 C 204.351562 166.59375 204.828125 168.304688 205.40625 169.984375 C 205.40625 170.019531 205.40625 170.039062 205.40625 170.070312 C 205.53125 170.386719 205.632812 170.664062 205.738281 170.996094 C 206.199219 172.210938 206.695312 173.410156 207.230469 174.574219 C 207.230469 174.574219 207.230469 174.574219 207.230469 174.605469 C 209.128906 178.625 211.566406 182.289062 214.535156 185.597656 C 218.566406 190.097656 222.0625 194.976562 225.023438 200.242188 Z M 225.023438 200.242188 " fill-opacity="1" fill-rule="nonzero"/><path fill="#e9580b" d="M 145.410156 158.96875 C 145.269531 160.027344 145.101562 161.070312 144.875 162.097656 C 143.960938 166.402344 142.246094 170.355469 139.726562 173.964844 C 139.265625 174.644531 138.75 175.324219 138.230469 175.964844 C 137.902344 176.378906 137.550781 176.78125 137.203125 177.179688 C 135.917969 178.625 134.679688 180.101562 133.507812 181.574219 C 133.246094 181.90625 132.96875 182.253906 132.6875 182.601562 C 132.644531 182.65625 132.605469 182.714844 132.566406 182.777344 C 132.542969 182.796875 132.519531 182.820312 132.5 182.84375 C 132.5 182.882812 132.464844 182.894531 132.449219 182.933594 C 132.425781 182.976562 132.394531 183.015625 132.359375 183.054688 C 128.25 188.394531 124.78125 194.121094 121.960938 200.242188 L 92.851562 200.242188 C 92.660156 197.964844 92.574219 195.667969 92.574219 193.359375 C 92.570312 185.132812 93.703125 177.0625 95.964844 169.152344 C 96.222656 169.015625 96.5 168.875 96.765625 168.75 C 98.34375 167.917969 99.945312 167.121094 101.546875 166.335938 C 101.945312 166.128906 102.347656 165.9375 102.742188 165.746094 C 103.140625 165.550781 103.5625 165.363281 103.964844 165.191406 C 105.527344 164.441406 107.109375 163.730469 108.691406 163.050781 C 111.464844 161.851562 114.273438 160.707031 117.109375 159.644531 C 118.496094 159.109375 119.882812 158.605469 121.269531 158.117188 C 122.226562 157.789062 123.183594 157.457031 124.15625 157.144531 C 124.988281 156.863281 125.824219 156.605469 126.65625 156.328125 C 126.972656 156.222656 127.285156 156.132812 127.613281 156.03125 L 128.710938 155.699219 C 131.320312 154.921875 133.964844 154.191406 136.605469 153.511719 C 139.566406 152.761719 142.574219 152.085938 145.613281 151.480469 C 145.773438 153.984375 145.707031 156.480469 145.410156 158.96875 Z M 145.410156 158.96875 " fill-opacity="1" fill-rule="nonzero"/><path fill="#e9580b" d="M 174.089844 105.789062 C 164.1875 106.488281 154.6875 108.8125 145.585938 112.765625 C 149.660156 119.550781 152.882812 126.71875 155.25 134.269531 C 155.511719 135.132812 155.761719 136.019531 156.007812 136.921875 C 161.992188 136.15625 168.058594 135.667969 174.089844 135.472656 Z M 174.089844 105.789062 " fill-opacity="1" fill-rule="nonzero"/><path fill="#e9580b" d="M 174.089844 148.089844 L 174.089844 200.242188 L 136.226562 200.242188 C 139.191406 194.976562 142.691406 190.09375 146.726562 185.597656 C 150.757812 181.070312 153.765625 175.941406 155.753906 170.214844 C 156.011719 169.433594 156.269531 168.652344 156.480469 167.867188 C 156.53125 167.730469 156.566406 167.574219 156.621094 167.433594 C 156.652344 167.277344 156.691406 167.125 156.742188 166.972656 L 156.898438 166.34375 C 156.949219 166.171875 156.988281 166 157.019531 165.824219 C 157.085938 165.582031 157.144531 165.363281 157.195312 165.113281 C 157.226562 164.972656 157.261719 164.816406 157.28125 164.679688 C 157.300781 164.539062 157.332031 164.453125 157.363281 164.34375 C 157.398438 164.238281 157.421875 164.066406 157.4375 163.949219 C 157.539062 163.445312 157.628906 162.957031 157.714844 162.453125 C 157.855469 161.601562 157.976562 160.746094 158.0625 159.898438 C 158.097656 159.707031 158.113281 159.535156 158.132812 159.359375 C 158.152344 159.203125 158.164062 159.050781 158.167969 158.894531 C 158.203125 158.664062 158.21875 158.433594 158.21875 158.199219 C 158.230469 158.152344 158.230469 158.105469 158.21875 158.058594 C 158.253906 157.808594 158.269531 157.554688 158.269531 157.296875 C 158.269531 157.121094 158.269531 156.964844 158.304688 156.789062 L 158.304688 156.6875 C 158.425781 154.265625 158.390625 151.84375 158.203125 149.425781 C 163.476562 148.730469 168.816406 148.296875 174.089844 148.089844 Z M 174.089844 148.089844 " fill-opacity="1" fill-rule="nonzero"/><path fill="#e9580b" d="M 103.203125 151.546875 C 112.886719 147.335938 122.84375 143.925781 133.078125 141.3125 C 136.453125 140.453125 139.914062 139.667969 143.394531 139 C 143.316406 138.734375 143.238281 138.46875 143.160156 138.210938 C 141.011719 131.339844 138.054688 124.832031 134.296875 118.691406 C 127.769531 122.71875 121.867188 127.515625 116.597656 133.085938 C 111.324219 138.65625 106.859375 144.808594 103.203125 151.546875 Z M 103.203125 151.546875 " fill-opacity="1" fill-rule="nonzero"/><path fill="#e9580b" d="M 222.832031 126.210938 C 220.933594 130.078125 219.347656 134.074219 218.082031 138.195312 C 217.992188 138.488281 217.90625 138.78125 217.820312 139.078125 C 231.394531 141.796875 244.585938 145.773438 257.390625 151.019531 C 256.007812 148.488281 254.472656 146.035156 252.84375 143.660156 C 224.082031 137.792969 222.851562 126.378906 222.832031 126.210938 Z M 222.832031 126.210938 " fill-opacity="1" fill-rule="nonzero"/><path fill="#e9580b" d="M 205.996094 134.269531 C 207.085938 130.730469 208.382812 127.269531 209.890625 123.886719 C 198.800781 126.234375 191.039062 123.710938 186.789062 121.503906 L 186.789062 135.488281 C 192.910156 135.695312 199.089844 136.207031 205.207031 137.007812 C 205.460938 136.074219 205.722656 135.160156 205.996094 134.269531 Z M 205.996094 134.269531 " fill-opacity="1" fill-rule="nonzero"/><path fill="#e9580b" d="M 156.007812 136.921875 C 161.992188 136.15625 168.058594 135.667969 174.089844 135.472656 L 174.089844 121.347656 C 167.835938 125.617188 158.632812 125.539062 151.675781 124.621094 C 153.046875 127.769531 154.238281 130.984375 155.25 134.269531 C 155.511719 135.132812 155.765625 136.019531 156.007812 136.921875 Z M 156.007812 136.921875 " fill-opacity="1" fill-rule="nonzero"/><path fill="#e9580b" d="M 133.078125 141.3125 C 136.453125 140.453125 139.914062 139.667969 143.394531 139 C 143.316406 138.734375 143.238281 138.46875 143.160156 138.210938 C 142.046875 134.585938 140.683594 131.058594 139.074219 127.621094 C 131.398438 137.699219 115.78125 141.695312 108.484375 143.054688 C 106.558594 145.792969 104.800781 148.628906 103.203125 151.566406 C 112.886719 147.347656 122.84375 143.929688 133.078125 141.3125 Z M 133.078125 141.3125 " fill-opacity="1" fill-rule="nonzero"/><path fill="#e9580b" d="M 167.617188 200.242188 L 153.566406 200.242188 C 155.414062 188.285156 161.566406 188.996094 161.566406 188.996094 C 164.121094 188.199219 166.398438 193.167969 167.617188 200.242188 Z M 167.617188 200.242188 " fill-opacity="1" fill-rule="nonzero"/><path fill="#e9580b" d="M 106.664062 179.039062 C 108.296875 177.191406 109.847656 175.308594 111.363281 173.378906 C 113.539062 170.609375 117.105469 166.871094 120.535156 166.871094 C 125.984375 166.871094 128.519531 171.589844 124.527344 176.304688 C 120.535156 181.019531 112.53125 191.910156 111.09375 198.066406 C 109.707031 203.96875 89.761719 197.941406 106.664062 179.039062 Z M 106.664062 179.039062 " fill-opacity="1" fill-rule="nonzero"/><path fill="#e9580b" d="M 226.847656 118.835938 C 226.386719 119.554688 225.921875 120.398438 225.375 121.355469 C 225.375 121.355469 231.625 133.625 247.78125 137.007812 C 241.765625 129.839844 234.789062 123.785156 226.847656 118.835938 Z M 226.847656 118.835938 " fill-opacity="1" fill-rule="nonzero"/><path fill="#e9580b" d="M 136.449219 122.410156 C 135.652344 120.941406 134.910156 119.679688 134.296875 118.671875 C 127.140625 123.097656 120.746094 128.4375 115.117188 134.6875 C 120.152344 133.988281 131.25 131.445312 136.449219 122.410156 Z M 136.449219 122.410156 " fill-opacity="1" fill-rule="nonzero"/><path fill="#e9580b" d="M 145.585938 112.765625 C 146.117188 113.65625 146.703125 114.664062 147.320312 115.777344 C 147.320312 115.777344 165.917969 120.332031 174.089844 109.132812 L 174.089844 105.789062 C 164.1875 106.488281 154.6875 108.8125 145.585938 112.765625 Z M 145.585938 112.765625 " fill-opacity="1" fill-rule="nonzero"/><path fill="#e9580b" d="M 213.84375 115.925781 C 214.457031 114.804688 215.046875 113.785156 215.582031 112.894531 C 206.394531 108.863281 196.800781 106.492188 186.792969 105.789062 L 186.792969 109.132812 C 186.792969 109.132812 195.710938 121.21875 213.84375 115.925781 Z M 213.84375 115.925781 " fill-opacity="1" fill-rule="nonzero"/><path fill="#e9580b" d="M 207.300781 200.242188 L 193.265625 200.242188 C 194.484375 193.167969 196.765625 188.199219 199.320312 188.996094 C 199.320312 188.996094 205.492188 188.285156 207.300781 200.242188 Z M 207.300781 200.242188 " fill-opacity="1" fill-rule="nonzero"/><path fill="#e9580b" d="M 254.21875 179.039062 C 252.582031 177.191406 251.035156 175.308594 249.519531 173.378906 C 247.339844 170.609375 243.769531 166.871094 240.34375 166.871094 C 234.898438 166.871094 232.355469 171.589844 236.351562 176.304688 C 240.351562 181.019531 248.332031 191.910156 249.777344 198.066406 C 251.164062 203.96875 271.117188 197.941406 254.21875 179.039062 Z M 254.21875 179.039062 " fill-opacity="1" fill-rule="nonzero"/><path fill="#e9580b" d="M 186.792969 175.898438 C 186.792969 175.898438 197.839844 161.296875 207.296875 174.597656 C 203.765625 167.066406 202.308594 158.546875 203.03125 149.390625 C 197.617188 148.703125 192.171875 148.257812 186.792969 148.066406 Z M 186.792969 175.898438 " fill-opacity="1" fill-rule="nonzero"/><path fill="#e9580b" d="M 261.328125 166.488281 L 258.558594 165.277344 C 244.742188 159.09375 230.417969 154.496094 215.582031 151.484375 C 214.996094 161.511719 217.808594 170.121094 223.953125 177.109375 L 223.992188 177.054688 C 223.992188 177.054688 207.109375 147.257812 263.734375 167.65625 Z M 261.328125 166.488281 " fill-opacity="1" fill-rule="nonzero"/><path fill="#e9580b" d="M 158.214844 149.40625 C 158.839844 156.507812 158.015625 163.433594 155.738281 170.1875 C 155.738281 170.1875 171.726562 160.996094 174.089844 177.535156 L 174.089844 148.097656 C 168.8125 148.292969 163.488281 148.730469 158.214844 149.40625 Z M 158.214844 149.40625 " fill-opacity="1" fill-rule="nonzero"/><path fill="#e9580b" d="M 137.601562 164.355469 C 140.285156 172.070312 133.414062 181.675781 132.363281 183.078125 C 133.878906 181.085938 135.492188 179.125 137.199219 177.199219 C 143.394531 170.195312 146.234375 161.554688 145.644531 151.492188 C 142.609375 152.097656 139.578125 152.78125 136.621094 153.53125 C 122.742188 157.046875 109.457031 162.128906 96.773438 168.769531 C 102.675781 166.835938 134.960938 156.753906 137.601562 164.355469 Z M 137.601562 164.355469 " fill-opacity="1" fill-rule="nonzero"/><path fill="#e9580b" d="M 180.460938 68.683594 C 110.492188 68.683594 53.769531 125.367188 53.769531 195.296875 C 53.769531 265.222656 110.492188 321.898438 180.460938 321.898438 C 250.429688 321.898438 307.152344 265.214844 307.152344 195.296875 C 307.152344 125.378906 250.429688 68.683594 180.460938 68.683594 Z M 180.460938 309.628906 C 117.277344 309.628906 66.042969 258.433594 66.042969 195.296875 C 66.042969 132.15625 117.277344 80.949219 180.460938 80.949219 C 243.644531 80.949219 294.875 132.148438 294.875 195.296875 C 294.875 258.441406 243.644531 309.628906 180.460938 309.628906 Z M 180.460938 309.628906 " fill-opacity="1" fill-rule="nonzero"/><path fill="#e9580b" d="M 171.613281 215.875 L 189.308594 215.875 L 189.308594 285.46875 L 171.613281 285.46875 Z M 171.613281 215.875 " fill-opacity="1" fill-rule="nonzero"/><path fill="#e9580b" d="M 171.613281 250.671875 L 189.308594 250.671875 L 189.308594 285.46875 L 171.613281 285.46875 Z M 171.613281 250.671875 " fill-opacity="1" fill-rule="nonzero"/><path fill="#e27b30" d="M 171.613281 258.785156 L 189.308594 258.785156 L 189.308594 285.46875 L 171.613281 285.46875 Z M 171.613281 258.785156 " fill-opacity="1" fill-rule="nonzero"/><path fill="#e9580b" d="M 118.945312 215.875 L 136.644531 215.875 L 136.644531 263.757812 L 118.945312 263.757812 Z M 118.945312 215.875 " fill-opacity="1" fill-rule="nonzero"/><path fill="#e27b30" d="M 118.945312 244.539062 L 136.644531 244.539062 L 136.644531 263.757812 L 118.945312 263.757812 Z M 118.945312 244.539062 " fill-opacity="1" fill-rule="nonzero"/><path fill="#e9580b" d="M 99.527344 246.347656 L 99.570312 246.492188 C 99.554688 246.441406 99.539062 246.394531 99.523438 246.347656 Z M 99.527344 246.347656 " fill-opacity="1" fill-rule="nonzero"/><path fill="#e9580b" d="M 92.613281 215.875 L 110.3125 215.875 L 110.3125 237.628906 L 92.613281 237.628906 Z M 92.613281 215.875 " fill-opacity="1" fill-rule="nonzero"/><path fill="#e27b30" d="M 92.613281 226.753906 L 110.3125 226.753906 L 110.3125 237.882812 L 92.613281 237.882812 Z M 92.613281 226.753906 " fill-opacity="1" fill-rule="nonzero"/><path fill="#e9580b" d="M 197.941406 215.875 L 215.640625 215.875 L 215.640625 275.492188 L 197.941406 275.492188 Z M 197.941406 215.875 " fill-opacity="1" fill-rule="nonzero"/><path fill="#e27b30" d="M 197.941406 244.585938 L 215.640625 244.585938 L 215.640625 275.492188 L 197.941406 275.492188 Z M 197.941406 244.585938 " fill-opacity="1" fill-rule="nonzero"/><path fill="#801e10" d="M 197.941406 260.039062 L 215.640625 260.039062 L 215.640625 275.492188 L 197.941406 275.492188 Z M 197.941406 260.039062 " fill-opacity="1" fill-rule="nonzero"/><path fill="#e9580b" d="M 224.273438 215.875 L 241.972656 215.875 L 241.972656 261.351562 L 224.273438 261.351562 Z M 224.273438 215.875 " fill-opacity="1" fill-rule="nonzero"/><path fill="#e27b30" d="M 224.273438 237.367188 L 241.972656 237.367188 L 241.972656 261.351562 L 224.273438 261.351562 Z M 224.273438 237.367188 " fill-opacity="1" fill-rule="nonzero"/><path fill="#801e10" d="M 224.273438 249.359375 L 241.972656 249.359375 L 241.972656 261.351562 L 224.273438 261.351562 Z M 224.273438 249.359375 " fill-opacity="1" fill-rule="nonzero"/><path fill="#e9580b" d="M 250.605469 215.875 L 268.304688 215.875 L 268.304688 225.914062 L 250.605469 225.914062 Z M 250.605469 215.875 " fill-opacity="1" fill-rule="nonzero"/><path fill="#e9580b" d="M 145.277344 215.875 L 162.976562 215.875 L 162.976562 278.894531 L 145.277344 278.894531 Z M 145.277344 215.875 " fill-opacity="1" fill-rule="nonzero"/><path fill="#e27b30" d="M 145.277344 258.136719 L 162.976562 258.136719 L 162.976562 278.902344 L 145.277344 278.902344 Z M 145.277344 258.136719 " fill-opacity="1" fill-rule="nonzero"/><path fill="#801e10" d="M 145.277344 270.777344 L 162.976562 270.777344 L 162.976562 278.902344 L 145.277344 278.902344 Z M 145.277344 270.777344 " fill-opacity="1" fill-rule="nonzero"/><path fill="#801e10" d="M 171.613281 272.125 L 189.308594 272.125 L 189.308594 285.46875 L 171.613281 285.46875 Z M 171.613281 272.125 " fill-opacity="1" fill-rule="nonzero"/></svg>