<svg xmlns="http://www.w3.org/2000/svg" xmlns:xlink="http://www.w3.org/1999/xlink" width="80" zoomAndPan="magnify" viewBox="0 0 60 30.000001" height="40" preserveAspectRatio="xMidYMid meet" version="1.0"><defs><g/></defs><g fill="#ff8d55" fill-opacity="0.4"><g transform="translate(10.230788, 11.718827)"><g><path d="M 7.578125 -8.59375 C 7.628906 -8.59375 7.691406 -8.570312 7.765625 -8.53125 C 7.835938 -8.488281 7.875 -8.390625 7.875 -8.234375 L 7.875 -0.359375 C 7.875 -0.191406 7.835938 -0.0859375 7.765625 -0.046875 C 7.691406 -0.00390625 7.628906 0.015625 7.578125 0.015625 L 6.625 0.015625 C 6.582031 0.015625 6.519531 -0.00390625 6.4375 -0.046875 C 6.363281 -0.0859375 6.328125 -0.191406 6.328125 -0.359375 L 6.328125 -3.5625 L 2.375 -3.5625 L 2.375 -0.359375 C 2.375 -0.191406 2.335938 -0.0859375 2.265625 -0.046875 C 2.191406 -0.00390625 2.132812 0.015625 2.09375 0.015625 L 1.140625 0.015625 C 1.085938 0.015625 1.019531 -0.00390625 0.9375 -0.046875 C 0.863281 -0.0859375 0.828125 -0.191406 0.828125 -0.359375 L 0.828125 -8.234375 C 0.828125 -8.390625 0.863281 -8.488281 0.9375 -8.53125 C 1.019531 -8.570312 1.085938 -8.59375 1.140625 -8.59375 L 2.09375 -8.59375 C 2.132812 -8.59375 2.191406 -8.570312 2.265625 -8.53125 C 2.335938 -8.488281 2.375 -8.390625 2.375 -8.234375 L 2.375 -5.109375 L 6.328125 -5.109375 L 6.328125 -8.234375 C 6.328125 -8.390625 6.363281 -8.488281 6.4375 -8.53125 C 6.519531 -8.570312 6.582031 -8.59375 6.625 -8.59375 Z M 7.578125 -8.59375 "/></g></g></g><g fill="#ff8d55" fill-opacity="0.4"><g transform="translate(19.470509, 11.718827)"><g><path d="M 7.9375 -7.84375 C 8.144531 -7.59375 8.296875 -7.25 8.390625 -6.8125 C 8.429688 -6.613281 8.460938 -6.390625 8.484375 -6.140625 C 8.515625 -5.890625 8.53125 -5.617188 8.53125 -5.328125 L 8.53125 -3.265625 C 8.53125 -2.972656 8.515625 -2.703125 8.484375 -2.453125 C 8.460938 -2.203125 8.429688 -1.976562 8.390625 -1.78125 C 8.296875 -1.351562 8.144531 -1.003906 7.9375 -0.734375 C 7.726562 -0.460938 7.457031 -0.273438 7.125 -0.171875 C 6.789062 -0.046875 6.398438 0.015625 5.953125 0.015625 L 3.40625 0.015625 C 2.945312 0.015625 2.554688 -0.046875 2.234375 -0.171875 C 1.910156 -0.273438 1.640625 -0.46875 1.421875 -0.75 C 1.210938 -1.019531 1.0625 -1.363281 0.96875 -1.78125 C 0.914062 -1.976562 0.878906 -2.203125 0.859375 -2.453125 C 0.835938 -2.703125 0.828125 -2.972656 0.828125 -3.265625 L 0.828125 -5.328125 C 0.828125 -5.929688 0.875 -6.425781 0.96875 -6.8125 C 1.0625 -7.226562 1.210938 -7.570312 1.421875 -7.84375 C 1.640625 -8.101562 1.910156 -8.296875 2.234375 -8.421875 C 2.566406 -8.535156 2.957031 -8.59375 3.40625 -8.59375 L 5.953125 -8.59375 C 6.398438 -8.59375 6.789062 -8.535156 7.125 -8.421875 C 7.457031 -8.296875 7.726562 -8.101562 7.9375 -7.84375 Z M 6.96875 -5.515625 C 6.96875 -5.660156 6.960938 -5.796875 6.953125 -5.921875 C 6.953125 -6.054688 6.941406 -6.175781 6.921875 -6.28125 C 6.890625 -6.476562 6.832031 -6.632812 6.75 -6.75 C 6.675781 -6.851562 6.566406 -6.929688 6.421875 -6.984375 C 6.359375 -7.003906 6.28125 -7.019531 6.1875 -7.03125 C 6.101562 -7.050781 6.003906 -7.0625 5.890625 -7.0625 L 3.453125 -7.0625 C 3.335938 -7.0625 3.238281 -7.050781 3.15625 -7.03125 C 3.070312 -7.019531 2.992188 -7.003906 2.921875 -6.984375 C 2.785156 -6.929688 2.679688 -6.851562 2.609375 -6.75 C 2.566406 -6.695312 2.53125 -6.628906 2.5 -6.546875 C 2.476562 -6.460938 2.457031 -6.375 2.4375 -6.28125 C 2.414062 -6.175781 2.398438 -6.054688 2.390625 -5.921875 C 2.378906 -5.796875 2.375 -5.660156 2.375 -5.515625 L 2.375 -3.078125 C 2.375 -2.921875 2.378906 -2.78125 2.390625 -2.65625 C 2.398438 -2.53125 2.414062 -2.414062 2.4375 -2.3125 C 2.457031 -2.21875 2.476562 -2.128906 2.5 -2.046875 C 2.53125 -1.972656 2.566406 -1.90625 2.609375 -1.84375 C 2.679688 -1.738281 2.785156 -1.664062 2.921875 -1.625 C 3.046875 -1.570312 3.222656 -1.546875 3.453125 -1.546875 L 5.890625 -1.546875 C 6.117188 -1.546875 6.296875 -1.570312 6.421875 -1.625 C 6.566406 -1.664062 6.675781 -1.738281 6.75 -1.84375 C 6.832031 -1.945312 6.890625 -2.101562 6.921875 -2.3125 C 6.941406 -2.414062 6.953125 -2.53125 6.953125 -2.65625 C 6.960938 -2.78125 6.96875 -2.921875 6.96875 -3.078125 Z M 6.96875 -5.515625 "/></g></g></g><g fill="#ff8d55" fill-opacity="0.4"><g transform="translate(29.357532, 11.718827)"><g><path d="M 7.9375 -7.84375 C 8.144531 -7.59375 8.296875 -7.25 8.390625 -6.8125 C 8.429688 -6.613281 8.460938 -6.390625 8.484375 -6.140625 C 8.515625 -5.890625 8.53125 -5.617188 8.53125 -5.328125 L 8.53125 -3.265625 C 8.53125 -2.972656 8.515625 -2.703125 8.484375 -2.453125 C 8.460938 -2.203125 8.429688 -1.976562 8.390625 -1.78125 C 8.296875 -1.351562 8.144531 -1.003906 7.9375 -0.734375 C 7.726562 -0.460938 7.457031 -0.273438 7.125 -0.171875 C 6.789062 -0.046875 6.398438 0.015625 5.953125 0.015625 L 3.40625 0.015625 C 2.945312 0.015625 2.554688 -0.046875 2.234375 -0.171875 C 1.910156 -0.273438 1.640625 -0.46875 1.421875 -0.75 C 1.210938 -1.019531 1.0625 -1.363281 0.96875 -1.78125 C 0.914062 -1.976562 0.878906 -2.203125 0.859375 -2.453125 C 0.835938 -2.703125 0.828125 -2.972656 0.828125 -3.265625 L 0.828125 -5.328125 C 0.828125 -5.929688 0.875 -6.425781 0.96875 -6.8125 C 1.0625 -7.226562 1.210938 -7.570312 1.421875 -7.84375 C 1.640625 -8.101562 1.910156 -8.296875 2.234375 -8.421875 C 2.566406 -8.535156 2.957031 -8.59375 3.40625 -8.59375 L 5.953125 -8.59375 C 6.398438 -8.59375 6.789062 -8.535156 7.125 -8.421875 C 7.457031 -8.296875 7.726562 -8.101562 7.9375 -7.84375 Z M 6.96875 -5.515625 C 6.96875 -5.660156 6.960938 -5.796875 6.953125 -5.921875 C 6.953125 -6.054688 6.941406 -6.175781 6.921875 -6.28125 C 6.890625 -6.476562 6.832031 -6.632812 6.75 -6.75 C 6.675781 -6.851562 6.566406 -6.929688 6.421875 -6.984375 C 6.359375 -7.003906 6.28125 -7.019531 6.1875 -7.03125 C 6.101562 -7.050781 6.003906 -7.0625 5.890625 -7.0625 L 3.453125 -7.0625 C 3.335938 -7.0625 3.238281 -7.050781 3.15625 -7.03125 C 3.070312 -7.019531 2.992188 -7.003906 2.921875 -6.984375 C 2.785156 -6.929688 2.679688 -6.851562 2.609375 -6.75 C 2.566406 -6.695312 2.53125 -6.628906 2.5 -6.546875 C 2.476562 -6.460938 2.457031 -6.375 2.4375 -6.28125 C 2.414062 -6.175781 2.398438 -6.054688 2.390625 -5.921875 C 2.378906 -5.796875 2.375 -5.660156 2.375 -5.515625 L 2.375 -3.078125 C 2.375 -2.921875 2.378906 -2.78125 2.390625 -2.65625 C 2.398438 -2.53125 2.414062 -2.414062 2.4375 -2.3125 C 2.457031 -2.21875 2.476562 -2.128906 2.5 -2.046875 C 2.53125 -1.972656 2.566406 -1.90625 2.609375 -1.84375 C 2.679688 -1.738281 2.785156 -1.664062 2.921875 -1.625 C 3.046875 -1.570312 3.222656 -1.546875 3.453125 -1.546875 L 5.890625 -1.546875 C 6.117188 -1.546875 6.296875 -1.570312 6.421875 -1.625 C 6.566406 -1.664062 6.675781 -1.738281 6.75 -1.84375 C 6.832031 -1.945312 6.890625 -2.101562 6.921875 -2.3125 C 6.941406 -2.414062 6.953125 -2.53125 6.953125 -2.65625 C 6.960938 -2.78125 6.96875 -2.921875 6.96875 -3.078125 Z M 6.96875 -5.515625 "/></g></g></g><g fill="#ff8d55" fill-opacity="0.4"><g transform="translate(39.244554, 11.718827)"><g><path d="M 5.953125 -8.59375 C 6.660156 -8.59375 7.171875 -8.375 7.484375 -7.9375 C 7.785156 -7.519531 7.9375 -6.890625 7.9375 -6.046875 L 7.9375 -6.109375 C 7.9375 -5.273438 7.785156 -4.644531 7.484375 -4.21875 C 7.171875 -3.78125 6.660156 -3.5625 5.953125 -3.5625 L 2.375 -3.546875 L 2.375 -0.359375 C 2.375 -0.191406 2.335938 -0.0859375 2.265625 -0.046875 C 2.191406 -0.00390625 2.132812 0.015625 2.09375 0.015625 L 1.125 0.015625 C 1.082031 0.015625 1.019531 -0.00390625 0.9375 -0.046875 C 0.863281 -0.0859375 0.828125 -0.191406 0.828125 -0.359375 L 0.828125 -4.734375 C 0.828125 -4.898438 0.863281 -5 0.9375 -5.03125 C 1.019531 -5.070312 1.082031 -5.09375 1.125 -5.09375 L 5.671875 -5.09375 C 5.941406 -5.09375 6.128906 -5.171875 6.234375 -5.328125 C 6.335938 -5.472656 6.390625 -5.722656 6.390625 -6.078125 C 6.390625 -6.421875 6.335938 -6.671875 6.234375 -6.828125 C 6.128906 -6.984375 5.941406 -7.0625 5.671875 -7.0625 L 1.125 -7.0625 C 1.082031 -7.0625 1.019531 -7.078125 0.9375 -7.109375 C 0.863281 -7.148438 0.828125 -7.25 0.828125 -7.40625 L 0.828125 -8.234375 C 0.828125 -8.398438 0.863281 -8.5 0.9375 -8.53125 C 1.019531 -8.570312 1.082031 -8.59375 1.125 -8.59375 Z M 5.953125 -8.59375 "/></g></g></g><g fill="#1a1923" fill-opacity="1"><g transform="translate(10.840193, 11.484898)"><g><path d="M 7.578125 -8.59375 C 7.628906 -8.59375 7.691406 -8.570312 7.765625 -8.53125 C 7.835938 -8.488281 7.875 -8.390625 7.875 -8.234375 L 7.875 -0.359375 C 7.875 -0.191406 7.835938 -0.0859375 7.765625 -0.046875 C 7.691406 -0.00390625 7.628906 0.015625 7.578125 0.015625 L 6.625 0.015625 C 6.582031 0.015625 6.519531 -0.00390625 6.4375 -0.046875 C 6.363281 -0.0859375 6.328125 -0.191406 6.328125 -0.359375 L 6.328125 -3.5625 L 2.375 -3.5625 L 2.375 -0.359375 C 2.375 -0.191406 2.335938 -0.0859375 2.265625 -0.046875 C 2.191406 -0.00390625 2.132812 0.015625 2.09375 0.015625 L 1.140625 0.015625 C 1.085938 0.015625 1.019531 -0.00390625 0.9375 -0.046875 C 0.863281 -0.0859375 0.828125 -0.191406 0.828125 -0.359375 L 0.828125 -8.234375 C 0.828125 -8.390625 0.863281 -8.488281 0.9375 -8.53125 C 1.019531 -8.570312 1.085938 -8.59375 1.140625 -8.59375 L 2.09375 -8.59375 C 2.132812 -8.59375 2.191406 -8.570312 2.265625 -8.53125 C 2.335938 -8.488281 2.375 -8.390625 2.375 -8.234375 L 2.375 -5.109375 L 6.328125 -5.109375 L 6.328125 -8.234375 C 6.328125 -8.390625 6.363281 -8.488281 6.4375 -8.53125 C 6.519531 -8.570312 6.582031 -8.59375 6.625 -8.59375 Z M 7.578125 -8.59375 "/></g></g></g><g fill="#1a1923" fill-opacity="1"><g transform="translate(20.079914, 11.484898)"><g><path d="M 7.9375 -7.84375 C 8.144531 -7.59375 8.296875 -7.25 8.390625 -6.8125 C 8.429688 -6.613281 8.460938 -6.390625 8.484375 -6.140625 C 8.515625 -5.890625 8.53125 -5.617188 8.53125 -5.328125 L 8.53125 -3.265625 C 8.53125 -2.972656 8.515625 -2.703125 8.484375 -2.453125 C 8.460938 -2.203125 8.429688 -1.976562 8.390625 -1.78125 C 8.296875 -1.351562 8.144531 -1.003906 7.9375 -0.734375 C 7.726562 -0.460938 7.457031 -0.273438 7.125 -0.171875 C 6.789062 -0.046875 6.398438 0.015625 5.953125 0.015625 L 3.40625 0.015625 C 2.945312 0.015625 2.554688 -0.046875 2.234375 -0.171875 C 1.910156 -0.273438 1.640625 -0.46875 1.421875 -0.75 C 1.210938 -1.019531 1.0625 -1.363281 0.96875 -1.78125 C 0.914062 -1.976562 0.878906 -2.203125 0.859375 -2.453125 C 0.835938 -2.703125 0.828125 -2.972656 0.828125 -3.265625 L 0.828125 -5.328125 C 0.828125 -5.929688 0.875 -6.425781 0.96875 -6.8125 C 1.0625 -7.226562 1.210938 -7.570312 1.421875 -7.84375 C 1.640625 -8.101562 1.910156 -8.296875 2.234375 -8.421875 C 2.566406 -8.535156 2.957031 -8.59375 3.40625 -8.59375 L 5.953125 -8.59375 C 6.398438 -8.59375 6.789062 -8.535156 7.125 -8.421875 C 7.457031 -8.296875 7.726562 -8.101562 7.9375 -7.84375 Z M 6.96875 -5.515625 C 6.96875 -5.660156 6.960938 -5.796875 6.953125 -5.921875 C 6.953125 -6.054688 6.941406 -6.175781 6.921875 -6.28125 C 6.890625 -6.476562 6.832031 -6.632812 6.75 -6.75 C 6.675781 -6.851562 6.566406 -6.929688 6.421875 -6.984375 C 6.359375 -7.003906 6.28125 -7.019531 6.1875 -7.03125 C 6.101562 -7.050781 6.003906 -7.0625 5.890625 -7.0625 L 3.453125 -7.0625 C 3.335938 -7.0625 3.238281 -7.050781 3.15625 -7.03125 C 3.070312 -7.019531 2.992188 -7.003906 2.921875 -6.984375 C 2.785156 -6.929688 2.679688 -6.851562 2.609375 -6.75 C 2.566406 -6.695312 2.53125 -6.628906 2.5 -6.546875 C 2.476562 -6.460938 2.457031 -6.375 2.4375 -6.28125 C 2.414062 -6.175781 2.398438 -6.054688 2.390625 -5.921875 C 2.378906 -5.796875 2.375 -5.660156 2.375 -5.515625 L 2.375 -3.078125 C 2.375 -2.921875 2.378906 -2.78125 2.390625 -2.65625 C 2.398438 -2.53125 2.414062 -2.414062 2.4375 -2.3125 C 2.457031 -2.21875 2.476562 -2.128906 2.5 -2.046875 C 2.53125 -1.972656 2.566406 -1.90625 2.609375 -1.84375 C 2.679688 -1.738281 2.785156 -1.664062 2.921875 -1.625 C 3.046875 -1.570312 3.222656 -1.546875 3.453125 -1.546875 L 5.890625 -1.546875 C 6.117188 -1.546875 6.296875 -1.570312 6.421875 -1.625 C 6.566406 -1.664062 6.675781 -1.738281 6.75 -1.84375 C 6.832031 -1.945312 6.890625 -2.101562 6.921875 -2.3125 C 6.941406 -2.414062 6.953125 -2.53125 6.953125 -2.65625 C 6.960938 -2.78125 6.96875 -2.921875 6.96875 -3.078125 Z M 6.96875 -5.515625 "/></g></g></g><g fill="#1a1923" fill-opacity="1"><g transform="translate(29.966936, 11.484898)"><g><path d="M 7.9375 -7.84375 C 8.144531 -7.59375 8.296875 -7.25 8.390625 -6.8125 C 8.429688 -6.613281 8.460938 -6.390625 8.484375 -6.140625 C 8.515625 -5.890625 8.53125 -5.617188 8.53125 -5.328125 L 8.53125 -3.265625 C 8.53125 -2.972656 8.515625 -2.703125 8.484375 -2.453125 C 8.460938 -2.203125 8.429688 -1.976562 8.390625 -1.78125 C 8.296875 -1.351562 8.144531 -1.003906 7.9375 -0.734375 C 7.726562 -0.460938 7.457031 -0.273438 7.125 -0.171875 C 6.789062 -0.046875 6.398438 0.015625 5.953125 0.015625 L 3.40625 0.015625 C 2.945312 0.015625 2.554688 -0.046875 2.234375 -0.171875 C 1.910156 -0.273438 1.640625 -0.46875 1.421875 -0.75 C 1.210938 -1.019531 1.0625 -1.363281 0.96875 -1.78125 C 0.914062 -1.976562 0.878906 -2.203125 0.859375 -2.453125 C 0.835938 -2.703125 0.828125 -2.972656 0.828125 -3.265625 L 0.828125 -5.328125 C 0.828125 -5.929688 0.875 -6.425781 0.96875 -6.8125 C 1.0625 -7.226562 1.210938 -7.570312 1.421875 -7.84375 C 1.640625 -8.101562 1.910156 -8.296875 2.234375 -8.421875 C 2.566406 -8.535156 2.957031 -8.59375 3.40625 -8.59375 L 5.953125 -8.59375 C 6.398438 -8.59375 6.789062 -8.535156 7.125 -8.421875 C 7.457031 -8.296875 7.726562 -8.101562 7.9375 -7.84375 Z M 6.96875 -5.515625 C 6.96875 -5.660156 6.960938 -5.796875 6.953125 -5.921875 C 6.953125 -6.054688 6.941406 -6.175781 6.921875 -6.28125 C 6.890625 -6.476562 6.832031 -6.632812 6.75 -6.75 C 6.675781 -6.851562 6.566406 -6.929688 6.421875 -6.984375 C 6.359375 -7.003906 6.28125 -7.019531 6.1875 -7.03125 C 6.101562 -7.050781 6.003906 -7.0625 5.890625 -7.0625 L 3.453125 -7.0625 C 3.335938 -7.0625 3.238281 -7.050781 3.15625 -7.03125 C 3.070312 -7.019531 2.992188 -7.003906 2.921875 -6.984375 C 2.785156 -6.929688 2.679688 -6.851562 2.609375 -6.75 C 2.566406 -6.695312 2.53125 -6.628906 2.5 -6.546875 C 2.476562 -6.460938 2.457031 -6.375 2.4375 -6.28125 C 2.414062 -6.175781 2.398438 -6.054688 2.390625 -5.921875 C 2.378906 -5.796875 2.375 -5.660156 2.375 -5.515625 L 2.375 -3.078125 C 2.375 -2.921875 2.378906 -2.78125 2.390625 -2.65625 C 2.398438 -2.53125 2.414062 -2.414062 2.4375 -2.3125 C 2.457031 -2.21875 2.476562 -2.128906 2.5 -2.046875 C 2.53125 -1.972656 2.566406 -1.90625 2.609375 -1.84375 C 2.679688 -1.738281 2.785156 -1.664062 2.921875 -1.625 C 3.046875 -1.570312 3.222656 -1.546875 3.453125 -1.546875 L 5.890625 -1.546875 C 6.117188 -1.546875 6.296875 -1.570312 6.421875 -1.625 C 6.566406 -1.664062 6.675781 -1.738281 6.75 -1.84375 C 6.832031 -1.945312 6.890625 -2.101562 6.921875 -2.3125 C 6.941406 -2.414062 6.953125 -2.53125 6.953125 -2.65625 C 6.960938 -2.78125 6.96875 -2.921875 6.96875 -3.078125 Z M 6.96875 -5.515625 "/></g></g></g><g fill="#1a1923" fill-opacity="1"><g transform="translate(39.853959, 11.484898)"><g><path d="M 5.953125 -8.59375 C 6.660156 -8.59375 7.171875 -8.375 7.484375 -7.9375 C 7.785156 -7.519531 7.9375 -6.890625 7.9375 -6.046875 L 7.9375 -6.109375 C 7.9375 -5.273438 7.785156 -4.644531 7.484375 -4.21875 C 7.171875 -3.78125 6.660156 -3.5625 5.953125 -3.5625 L 2.375 -3.546875 L 2.375 -0.359375 C 2.375 -0.191406 2.335938 -0.0859375 2.265625 -0.046875 C 2.191406 -0.00390625 2.132812 0.015625 2.09375 0.015625 L 1.125 0.015625 C 1.082031 0.015625 1.019531 -0.00390625 0.9375 -0.046875 C 0.863281 -0.0859375 0.828125 -0.191406 0.828125 -0.359375 L 0.828125 -4.734375 C 0.828125 -4.898438 0.863281 -5 0.9375 -5.03125 C 1.019531 -5.070312 1.082031 -5.09375 1.125 -5.09375 L 5.671875 -5.09375 C 5.941406 -5.09375 6.128906 -5.171875 6.234375 -5.328125 C 6.335938 -5.472656 6.390625 -5.722656 6.390625 -6.078125 C 6.390625 -6.421875 6.335938 -6.671875 6.234375 -6.828125 C 6.128906 -6.984375 5.941406 -7.0625 5.671875 -7.0625 L 1.125 -7.0625 C 1.082031 -7.0625 1.019531 -7.078125 0.9375 -7.109375 C 0.863281 -7.148438 0.828125 -7.25 0.828125 -7.40625 L 0.828125 -8.234375 C 0.828125 -8.398438 0.863281 -8.5 0.9375 -8.53125 C 1.019531 -8.570312 1.082031 -8.59375 1.125 -8.59375 Z M 5.953125 -8.59375 "/></g></g></g><g fill="#ffffff" fill-opacity="0.4"><g transform="translate(0.624683, 21.888502)"><g><path d="M 8.046875 -8.59375 C 8.097656 -8.59375 8.160156 -8.570312 8.234375 -8.53125 C 8.304688 -8.5 8.34375 -8.40625 8.34375 -8.25 L 8.34375 -7.4375 C 8.34375 -7.257812 8.304688 -7.148438 8.234375 -7.109375 C 8.160156 -7.078125 8.097656 -7.0625 8.046875 -7.0625 L 5.359375 -7.0625 L 5.359375 -0.359375 C 5.359375 -0.191406 5.320312 -0.0859375 5.25 -0.046875 C 5.175781 -0.015625 5.117188 0 5.078125 0 L 4.109375 0 C 4.066406 0 4.003906 -0.015625 3.921875 -0.046875 C 3.847656 -0.0859375 3.8125 -0.191406 3.8125 -0.359375 L 3.8125 -7.0625 L 1.140625 -7.0625 C 1.085938 -7.0625 1.019531 -7.078125 0.9375 -7.109375 C 0.863281 -7.148438 0.828125 -7.257812 0.828125 -7.4375 L 0.828125 -8.25 C 0.828125 -8.40625 0.863281 -8.5 0.9375 -8.53125 C 1.019531 -8.570312 1.085938 -8.59375 1.140625 -8.59375 Z M 8.046875 -8.59375 "/></g></g></g><g fill="#ffffff" fill-opacity="0.4"><g transform="translate(10.334219, 21.888502)"><g><path d="M 7.953125 -6.109375 L 7.953125 -6.046875 C 7.953125 -6.054688 7.953125 -6.066406 7.953125 -6.078125 C 7.953125 -6.085938 7.953125 -6.097656 7.953125 -6.109375 Z M 8.15625 -0.453125 C 8.195312 -0.390625 8.207031 -0.304688 8.1875 -0.203125 C 8.164062 -0.0546875 8.085938 0.015625 7.953125 0.015625 L 6.8125 0.015625 C 6.71875 0.015625 6.644531 -0.00390625 6.59375 -0.046875 C 6.570312 -0.0664062 6.550781 -0.0859375 6.53125 -0.109375 C 6.507812 -0.140625 6.488281 -0.171875 6.46875 -0.203125 L 4.578125 -3.546875 L 2.375 -3.546875 L 2.375 -0.359375 C 2.375 -0.191406 2.335938 -0.0859375 2.265625 -0.046875 C 2.191406 -0.00390625 2.132812 0.015625 2.09375 0.015625 L 1.140625 0.015625 C 1.085938 0.015625 1.019531 -0.00390625 0.9375 -0.046875 C 0.863281 -0.0859375 0.828125 -0.191406 0.828125 -0.359375 L 0.828125 -4.734375 C 0.828125 -4.898438 0.863281 -5 0.9375 -5.03125 C 1.019531 -5.070312 1.085938 -5.09375 1.140625 -5.09375 L 5.671875 -5.09375 C 5.941406 -5.09375 6.128906 -5.171875 6.234375 -5.328125 C 6.335938 -5.472656 6.390625 -5.722656 6.390625 -6.078125 C 6.390625 -6.421875 6.335938 -6.671875 6.234375 -6.828125 C 6.128906 -6.984375 5.941406 -7.0625 5.671875 -7.0625 L 1.140625 -7.0625 C 1.085938 -7.0625 1.019531 -7.078125 0.9375 -7.109375 C 0.863281 -7.148438 0.828125 -7.25 0.828125 -7.40625 L 0.828125 -8.234375 C 0.828125 -8.398438 0.863281 -8.5 0.9375 -8.53125 C 1.019531 -8.570312 1.085938 -8.59375 1.140625 -8.59375 L 5.953125 -8.59375 C 6.671875 -8.59375 7.1875 -8.375 7.5 -7.9375 C 7.789062 -7.5 7.941406 -6.878906 7.953125 -6.078125 C 7.941406 -5.265625 7.789062 -4.644531 7.5 -4.21875 C 7.226562 -3.851562 6.835938 -3.640625 6.328125 -3.578125 Z M 8.15625 -0.453125 "/></g></g></g><g fill="#ffffff" fill-opacity="0.4"><g transform="translate(19.897591, 21.888502)"><g><path d="M 6.421875 -7.625 L 9.359375 -0.390625 C 9.398438 -0.296875 9.410156 -0.210938 9.390625 -0.140625 C 9.390625 -0.117188 9.375 -0.0859375 9.34375 -0.046875 C 9.3125 -0.00390625 9.253906 0.015625 9.171875 0.015625 L 8.046875 0.015625 C 7.898438 0.015625 7.800781 -0.0625 7.75 -0.21875 L 5.15625 -6.6875 C 5.144531 -6.695312 5.140625 -6.703125 5.140625 -6.703125 L 5.109375 -6.703125 C 5.109375 -6.703125 5.101562 -6.695312 5.09375 -6.6875 C 5.09375 -6.6875 5.085938 -6.679688 5.078125 -6.671875 L 3.75 -3.28125 L 5.046875 -3.28125 C 5.191406 -3.28125 5.289062 -3.210938 5.34375 -3.078125 L 5.71875 -2.15625 C 5.75 -2.03125 5.734375 -1.925781 5.671875 -1.84375 C 5.617188 -1.75 5.53125 -1.703125 5.40625 -1.703125 L 3.125 -1.703125 L 2.53125 -0.203125 C 2.46875 -0.0546875 2.367188 0.015625 2.234375 0.015625 L 1.078125 0.015625 C 0.992188 0.015625 0.9375 -0.00390625 0.90625 -0.046875 C 0.875 -0.0859375 0.859375 -0.117188 0.859375 -0.140625 C 0.835938 -0.203125 0.84375 -0.285156 0.875 -0.390625 L 3.78125 -7.625 C 3.925781 -8 4.082031 -8.253906 4.25 -8.390625 C 4.269531 -8.398438 4.289062 -8.414062 4.3125 -8.4375 C 4.34375 -8.457031 4.375 -8.476562 4.40625 -8.5 C 4.613281 -8.644531 4.851562 -8.71875 5.125 -8.71875 C 5.40625 -8.71875 5.660156 -8.628906 5.890625 -8.453125 C 6.117188 -8.273438 6.273438 -8.050781 6.359375 -7.78125 C 6.378906 -7.757812 6.394531 -7.734375 6.40625 -7.703125 C 6.414062 -7.679688 6.421875 -7.65625 6.421875 -7.625 Z M 6.421875 -7.625 "/></g></g></g><g fill="#ffffff" fill-opacity="0.4"><g transform="translate(30.672044, 21.888502)"><g><path d="M 7.21875 -8.59375 C 7.257812 -8.59375 7.316406 -8.570312 7.390625 -8.53125 C 7.460938 -8.488281 7.5 -8.390625 7.5 -8.234375 L 7.5 -7.4375 C 7.5 -7.269531 7.460938 -7.164062 7.390625 -7.125 C 7.316406 -7.082031 7.257812 -7.0625 7.21875 -7.0625 L 3.46875 -7.0625 C 3.226562 -7.0625 3.046875 -7.035156 2.921875 -6.984375 C 2.796875 -6.941406 2.691406 -6.863281 2.609375 -6.75 C 2.535156 -6.644531 2.476562 -6.492188 2.4375 -6.296875 C 2.414062 -6.191406 2.398438 -6.078125 2.390625 -5.953125 C 2.378906 -5.828125 2.375 -5.679688 2.375 -5.515625 L 2.375 -3.09375 C 2.375 -2.9375 2.378906 -2.789062 2.390625 -2.65625 C 2.398438 -2.53125 2.414062 -2.414062 2.4375 -2.3125 C 2.457031 -2.207031 2.476562 -2.117188 2.5 -2.046875 C 2.53125 -1.972656 2.566406 -1.90625 2.609375 -1.84375 C 2.691406 -1.738281 2.796875 -1.664062 2.921875 -1.625 C 3.046875 -1.570312 3.226562 -1.546875 3.46875 -1.546875 L 7.21875 -1.546875 C 7.257812 -1.546875 7.316406 -1.523438 7.390625 -1.484375 C 7.460938 -1.441406 7.5 -1.335938 7.5 -1.171875 L 7.5 -0.359375 C 7.5 -0.191406 7.460938 -0.0859375 7.390625 -0.046875 C 7.316406 -0.00390625 7.257812 0.015625 7.21875 0.015625 L 3.40625 0.015625 C 2.957031 0.015625 2.566406 -0.046875 2.234375 -0.171875 C 1.910156 -0.273438 1.644531 -0.460938 1.4375 -0.734375 C 1.21875 -1.015625 1.0625 -1.359375 0.96875 -1.765625 C 0.914062 -1.972656 0.878906 -2.203125 0.859375 -2.453125 C 0.835938 -2.703125 0.828125 -2.972656 0.828125 -3.265625 L 0.828125 -5.328125 C 0.828125 -5.617188 0.835938 -5.890625 0.859375 -6.140625 C 0.878906 -6.390625 0.914062 -6.613281 0.96875 -6.8125 C 1.0625 -7.226562 1.21875 -7.570312 1.4375 -7.84375 C 1.632812 -8.101562 1.898438 -8.296875 2.234375 -8.421875 C 2.566406 -8.535156 2.957031 -8.59375 3.40625 -8.59375 Z M 7.21875 -8.59375 "/></g></g></g><g fill="#ffffff" fill-opacity="0.4"><g transform="translate(39.535911, 21.888502)"><g><path d="M 5.828125 -3.578125 L 7.640625 -0.453125 C 7.679688 -0.398438 7.695312 -0.316406 7.6875 -0.203125 C 7.664062 -0.0546875 7.582031 0.015625 7.4375 0.015625 L 6.3125 0.015625 C 6.207031 0.015625 6.132812 -0.00390625 6.09375 -0.046875 C 6.050781 -0.0859375 6.015625 -0.140625 5.984375 -0.203125 L 4.359375 -3.0625 C 4.242188 -3.269531 4.128906 -3.40625 4.015625 -3.46875 C 3.890625 -3.53125 3.695312 -3.5625 3.4375 -3.5625 L 2.390625 -3.5625 L 2.390625 -0.359375 C 2.390625 -0.191406 2.347656 -0.0859375 2.265625 -0.046875 C 2.191406 -0.00390625 2.132812 0.015625 2.09375 0.015625 L 1.140625 0.015625 C 1.097656 0.015625 1.035156 -0.00390625 0.953125 -0.046875 C 0.867188 -0.0859375 0.828125 -0.191406 0.828125 -0.359375 L 0.828125 -8.234375 C 0.828125 -8.398438 0.867188 -8.5 0.953125 -8.53125 C 1.035156 -8.570312 1.097656 -8.59375 1.140625 -8.59375 L 2.09375 -8.59375 C 2.132812 -8.59375 2.191406 -8.570312 2.265625 -8.53125 C 2.347656 -8.5 2.390625 -8.398438 2.390625 -8.234375 L 2.390625 -5.109375 L 3.34375 -5.109375 C 3.414062 -5.109375 3.476562 -5.109375 3.53125 -5.109375 C 3.59375 -5.117188 3.644531 -5.128906 3.6875 -5.140625 C 3.769531 -5.148438 3.84375 -5.171875 3.90625 -5.203125 C 3.96875 -5.234375 4.023438 -5.28125 4.078125 -5.34375 C 4.097656 -5.375 4.125 -5.410156 4.15625 -5.453125 C 4.1875 -5.503906 4.21875 -5.554688 4.25 -5.609375 L 5.828125 -8.390625 C 5.847656 -8.441406 5.882812 -8.488281 5.9375 -8.53125 C 5.976562 -8.570312 6.054688 -8.59375 6.171875 -8.59375 L 7.203125 -8.59375 C 7.328125 -8.59375 7.40625 -8.535156 7.4375 -8.421875 C 7.457031 -8.328125 7.445312 -8.242188 7.40625 -8.171875 L 5.6875 -5.140625 C 5.582031 -4.972656 5.488281 -4.816406 5.40625 -4.671875 C 5.375 -4.628906 5.34375 -4.582031 5.3125 -4.53125 C 5.28125 -4.488281 5.242188 -4.445312 5.203125 -4.40625 C 5.304688 -4.3125 5.410156 -4.191406 5.515625 -4.046875 C 5.617188 -3.910156 5.722656 -3.753906 5.828125 -3.578125 Z M 5.828125 -3.578125 "/></g></g></g><g fill="#ffffff" fill-opacity="0.4"><g transform="translate(48.587704, 21.888502)"><g><path d="M 7.953125 -6.109375 L 7.953125 -6.046875 C 7.953125 -6.054688 7.953125 -6.066406 7.953125 -6.078125 C 7.953125 -6.085938 7.953125 -6.097656 7.953125 -6.109375 Z M 8.15625 -0.453125 C 8.195312 -0.390625 8.207031 -0.304688 8.1875 -0.203125 C 8.164062 -0.0546875 8.085938 0.015625 7.953125 0.015625 L 6.8125 0.015625 C 6.71875 0.015625 6.644531 -0.00390625 6.59375 -0.046875 C 6.570312 -0.0664062 6.550781 -0.0859375 6.53125 -0.109375 C 6.507812 -0.140625 6.488281 -0.171875 6.46875 -0.203125 L 4.578125 -3.546875 L 2.375 -3.546875 L 2.375 -0.359375 C 2.375 -0.191406 2.335938 -0.0859375 2.265625 -0.046875 C 2.191406 -0.00390625 2.132812 0.015625 2.09375 0.015625 L 1.140625 0.015625 C 1.085938 0.015625 1.019531 -0.00390625 0.9375 -0.046875 C 0.863281 -0.0859375 0.828125 -0.191406 0.828125 -0.359375 L 0.828125 -4.734375 C 0.828125 -4.898438 0.863281 -5 0.9375 -5.03125 C 1.019531 -5.070312 1.085938 -5.09375 1.140625 -5.09375 L 5.671875 -5.09375 C 5.941406 -5.09375 6.128906 -5.171875 6.234375 -5.328125 C 6.335938 -5.472656 6.390625 -5.722656 6.390625 -6.078125 C 6.390625 -6.421875 6.335938 -6.671875 6.234375 -6.828125 C 6.128906 -6.984375 5.941406 -7.0625 5.671875 -7.0625 L 1.140625 -7.0625 C 1.085938 -7.0625 1.019531 -7.078125 0.9375 -7.109375 C 0.863281 -7.148438 0.828125 -7.25 0.828125 -7.40625 L 0.828125 -8.234375 C 0.828125 -8.398438 0.863281 -8.5 0.9375 -8.53125 C 1.019531 -8.570312 1.085938 -8.59375 1.140625 -8.59375 L 5.953125 -8.59375 C 6.671875 -8.59375 7.1875 -8.375 7.5 -7.9375 C 7.789062 -7.5 7.941406 -6.878906 7.953125 -6.078125 C 7.941406 -5.265625 7.789062 -4.644531 7.5 -4.21875 C 7.226562 -3.851562 6.835938 -3.640625 6.328125 -3.578125 Z M 8.15625 -0.453125 "/></g></g></g><g fill="#1a1923" fill-opacity="1"><g transform="translate(1.234088, 21.654574)"><g><path d="M 8.046875 -8.59375 C 8.097656 -8.59375 8.160156 -8.570312 8.234375 -8.53125 C 8.304688 -8.5 8.34375 -8.40625 8.34375 -8.25 L 8.34375 -7.4375 C 8.34375 -7.257812 8.304688 -7.148438 8.234375 -7.109375 C 8.160156 -7.078125 8.097656 -7.0625 8.046875 -7.0625 L 5.359375 -7.0625 L 5.359375 -0.359375 C 5.359375 -0.191406 5.320312 -0.0859375 5.25 -0.046875 C 5.175781 -0.015625 5.117188 0 5.078125 0 L 4.109375 0 C 4.066406 0 4.003906 -0.015625 3.921875 -0.046875 C 3.847656 -0.0859375 3.8125 -0.191406 3.8125 -0.359375 L 3.8125 -7.0625 L 1.140625 -7.0625 C 1.085938 -7.0625 1.019531 -7.078125 0.9375 -7.109375 C 0.863281 -7.148438 0.828125 -7.257812 0.828125 -7.4375 L 0.828125 -8.25 C 0.828125 -8.40625 0.863281 -8.5 0.9375 -8.53125 C 1.019531 -8.570312 1.085938 -8.59375 1.140625 -8.59375 Z M 8.046875 -8.59375 "/></g></g></g><g fill="#1a1923" fill-opacity="1"><g transform="translate(10.943624, 21.654574)"><g><path d="M 7.953125 -6.109375 L 7.953125 -6.046875 C 7.953125 -6.054688 7.953125 -6.066406 7.953125 -6.078125 C 7.953125 -6.085938 7.953125 -6.097656 7.953125 -6.109375 Z M 8.15625 -0.453125 C 8.195312 -0.390625 8.207031 -0.304688 8.1875 -0.203125 C 8.164062 -0.0546875 8.085938 0.015625 7.953125 0.015625 L 6.8125 0.015625 C 6.71875 0.015625 6.644531 -0.00390625 6.59375 -0.046875 C 6.570312 -0.0664062 6.550781 -0.0859375 6.53125 -0.109375 C 6.507812 -0.140625 6.488281 -0.171875 6.46875 -0.203125 L 4.578125 -3.546875 L 2.375 -3.546875 L 2.375 -0.359375 C 2.375 -0.191406 2.335938 -0.0859375 2.265625 -0.046875 C 2.191406 -0.00390625 2.132812 0.015625 2.09375 0.015625 L 1.140625 0.015625 C 1.085938 0.015625 1.019531 -0.00390625 0.9375 -0.046875 C 0.863281 -0.0859375 0.828125 -0.191406 0.828125 -0.359375 L 0.828125 -4.734375 C 0.828125 -4.898438 0.863281 -5 0.9375 -5.03125 C 1.019531 -5.070312 1.085938 -5.09375 1.140625 -5.09375 L 5.671875 -5.09375 C 5.941406 -5.09375 6.128906 -5.171875 6.234375 -5.328125 C 6.335938 -5.472656 6.390625 -5.722656 6.390625 -6.078125 C 6.390625 -6.421875 6.335938 -6.671875 6.234375 -6.828125 C 6.128906 -6.984375 5.941406 -7.0625 5.671875 -7.0625 L 1.140625 -7.0625 C 1.085938 -7.0625 1.019531 -7.078125 0.9375 -7.109375 C 0.863281 -7.148438 0.828125 -7.25 0.828125 -7.40625 L 0.828125 -8.234375 C 0.828125 -8.398438 0.863281 -8.5 0.9375 -8.53125 C 1.019531 -8.570312 1.085938 -8.59375 1.140625 -8.59375 L 5.953125 -8.59375 C 6.671875 -8.59375 7.1875 -8.375 7.5 -7.9375 C 7.789062 -7.5 7.941406 -6.878906 7.953125 -6.078125 C 7.941406 -5.265625 7.789062 -4.644531 7.5 -4.21875 C 7.226562 -3.851562 6.835938 -3.640625 6.328125 -3.578125 Z M 8.15625 -0.453125 "/></g></g></g><g fill="#1a1923" fill-opacity="1"><g transform="translate(20.506996, 21.654574)"><g><path d="M 6.421875 -7.625 L 9.359375 -0.390625 C 9.398438 -0.296875 9.410156 -0.210938 9.390625 -0.140625 C 9.390625 -0.117188 9.375 -0.0859375 9.34375 -0.046875 C 9.3125 -0.00390625 9.253906 0.015625 9.171875 0.015625 L 8.046875 0.015625 C 7.898438 0.015625 7.800781 -0.0625 7.75 -0.21875 L 5.15625 -6.6875 C 5.144531 -6.695312 5.140625 -6.703125 5.140625 -6.703125 L 5.109375 -6.703125 C 5.109375 -6.703125 5.101562 -6.695312 5.09375 -6.6875 C 5.09375 -6.6875 5.085938 -6.679688 5.078125 -6.671875 L 3.75 -3.28125 L 5.046875 -3.28125 C 5.191406 -3.28125 5.289062 -3.210938 5.34375 -3.078125 L 5.71875 -2.15625 C 5.75 -2.03125 5.734375 -1.925781 5.671875 -1.84375 C 5.617188 -1.75 5.53125 -1.703125 5.40625 -1.703125 L 3.125 -1.703125 L 2.53125 -0.203125 C 2.46875 -0.0546875 2.367188 0.015625 2.234375 0.015625 L 1.078125 0.015625 C 0.992188 0.015625 0.9375 -0.00390625 0.90625 -0.046875 C 0.875 -0.0859375 0.859375 -0.117188 0.859375 -0.140625 C 0.835938 -0.203125 0.84375 -0.285156 0.875 -0.390625 L 3.78125 -7.625 C 3.925781 -8 4.082031 -8.253906 4.25 -8.390625 C 4.269531 -8.398438 4.289062 -8.414062 4.3125 -8.4375 C 4.34375 -8.457031 4.375 -8.476562 4.40625 -8.5 C 4.613281 -8.644531 4.851562 -8.71875 5.125 -8.71875 C 5.40625 -8.71875 5.660156 -8.628906 5.890625 -8.453125 C 6.117188 -8.273438 6.273438 -8.050781 6.359375 -7.78125 C 6.378906 -7.757812 6.394531 -7.734375 6.40625 -7.703125 C 6.414062 -7.679688 6.421875 -7.65625 6.421875 -7.625 Z M 6.421875 -7.625 "/></g></g></g><g fill="#1a1923" fill-opacity="1"><g transform="translate(31.281449, 21.654574)"><g><path d="M 7.21875 -8.59375 C 7.257812 -8.59375 7.316406 -8.570312 7.390625 -8.53125 C 7.460938 -8.488281 7.5 -8.390625 7.5 -8.234375 L 7.5 -7.4375 C 7.5 -7.269531 7.460938 -7.164062 7.390625 -7.125 C 7.316406 -7.082031 7.257812 -7.0625 7.21875 -7.0625 L 3.46875 -7.0625 C 3.226562 -7.0625 3.046875 -7.035156 2.921875 -6.984375 C 2.796875 -6.941406 2.691406 -6.863281 2.609375 -6.75 C 2.535156 -6.644531 2.476562 -6.492188 2.4375 -6.296875 C 2.414062 -6.191406 2.398438 -6.078125 2.390625 -5.953125 C 2.378906 -5.828125 2.375 -5.679688 2.375 -5.515625 L 2.375 -3.09375 C 2.375 -2.9375 2.378906 -2.789062 2.390625 -2.65625 C 2.398438 -2.53125 2.414062 -2.414062 2.4375 -2.3125 C 2.457031 -2.207031 2.476562 -2.117188 2.5 -2.046875 C 2.53125 -1.972656 2.566406 -1.90625 2.609375 -1.84375 C 2.691406 -1.738281 2.796875 -1.664062 2.921875 -1.625 C 3.046875 -1.570312 3.226562 -1.546875 3.46875 -1.546875 L 7.21875 -1.546875 C 7.257812 -1.546875 7.316406 -1.523438 7.390625 -1.484375 C 7.460938 -1.441406 7.5 -1.335938 7.5 -1.171875 L 7.5 -0.359375 C 7.5 -0.191406 7.460938 -0.0859375 7.390625 -0.046875 C 7.316406 -0.00390625 7.257812 0.015625 7.21875 0.015625 L 3.40625 0.015625 C 2.957031 0.015625 2.566406 -0.046875 2.234375 -0.171875 C 1.910156 -0.273438 1.644531 -0.460938 1.4375 -0.734375 C 1.21875 -1.015625 1.0625 -1.359375 0.96875 -1.765625 C 0.914062 -1.972656 0.878906 -2.203125 0.859375 -2.453125 C 0.835938 -2.703125 0.828125 -2.972656 0.828125 -3.265625 L 0.828125 -5.328125 C 0.828125 -5.617188 0.835938 -5.890625 0.859375 -6.140625 C 0.878906 -6.390625 0.914062 -6.613281 0.96875 -6.8125 C 1.0625 -7.226562 1.21875 -7.570312 1.4375 -7.84375 C 1.632812 -8.101562 1.898438 -8.296875 2.234375 -8.421875 C 2.566406 -8.535156 2.957031 -8.59375 3.40625 -8.59375 Z M 7.21875 -8.59375 "/></g></g></g><g fill="#1a1923" fill-opacity="1"><g transform="translate(40.145316, 21.654574)"><g><path d="M 5.828125 -3.578125 L 7.640625 -0.453125 C 7.679688 -0.398438 7.695312 -0.316406 7.6875 -0.203125 C 7.664062 -0.0546875 7.582031 0.015625 7.4375 0.015625 L 6.3125 0.015625 C 6.207031 0.015625 6.132812 -0.00390625 6.09375 -0.046875 C 6.050781 -0.0859375 6.015625 -0.140625 5.984375 -0.203125 L 4.359375 -3.0625 C 4.242188 -3.269531 4.128906 -3.40625 4.015625 -3.46875 C 3.890625 -3.53125 3.695312 -3.5625 3.4375 -3.5625 L 2.390625 -3.5625 L 2.390625 -0.359375 C 2.390625 -0.191406 2.347656 -0.0859375 2.265625 -0.046875 C 2.191406 -0.00390625 2.132812 0.015625 2.09375 0.015625 L 1.140625 0.015625 C 1.097656 0.015625 1.035156 -0.00390625 0.953125 -0.046875 C 0.867188 -0.0859375 0.828125 -0.191406 0.828125 -0.359375 L 0.828125 -8.234375 C 0.828125 -8.398438 0.867188 -8.5 0.953125 -8.53125 C 1.035156 -8.570312 1.097656 -8.59375 1.140625 -8.59375 L 2.09375 -8.59375 C 2.132812 -8.59375 2.191406 -8.570312 2.265625 -8.53125 C 2.347656 -8.5 2.390625 -8.398438 2.390625 -8.234375 L 2.390625 -5.109375 L 3.34375 -5.109375 C 3.414062 -5.109375 3.476562 -5.109375 3.53125 -5.109375 C 3.59375 -5.117188 3.644531 -5.128906 3.6875 -5.140625 C 3.769531 -5.148438 3.84375 -5.171875 3.90625 -5.203125 C 3.96875 -5.234375 4.023438 -5.28125 4.078125 -5.34375 C 4.097656 -5.375 4.125 -5.410156 4.15625 -5.453125 C 4.1875 -5.503906 4.21875 -5.554688 4.25 -5.609375 L 5.828125 -8.390625 C 5.847656 -8.441406 5.882812 -8.488281 5.9375 -8.53125 C 5.976562 -8.570312 6.054688 -8.59375 6.171875 -8.59375 L 7.203125 -8.59375 C 7.328125 -8.59375 7.40625 -8.535156 7.4375 -8.421875 C 7.457031 -8.328125 7.445312 -8.242188 7.40625 -8.171875 L 5.6875 -5.140625 C 5.582031 -4.972656 5.488281 -4.816406 5.40625 -4.671875 C 5.375 -4.628906 5.34375 -4.582031 5.3125 -4.53125 C 5.28125 -4.488281 5.242188 -4.445312 5.203125 -4.40625 C 5.304688 -4.3125 5.410156 -4.191406 5.515625 -4.046875 C 5.617188 -3.910156 5.722656 -3.753906 5.828125 -3.578125 Z M 5.828125 -3.578125 "/></g></g></g><g fill="#1a1923" fill-opacity="1"><g transform="translate(49.197109, 21.654574)"><g><path d="M 7.953125 -6.109375 L 7.953125 -6.046875 C 7.953125 -6.054688 7.953125 -6.066406 7.953125 -6.078125 C 7.953125 -6.085938 7.953125 -6.097656 7.953125 -6.109375 Z M 8.15625 -0.453125 C 8.195312 -0.390625 8.207031 -0.304688 8.1875 -0.203125 C 8.164062 -0.0546875 8.085938 0.015625 7.953125 0.015625 L 6.8125 0.015625 C 6.71875 0.015625 6.644531 -0.00390625 6.59375 -0.046875 C 6.570312 -0.0664062 6.550781 -0.0859375 6.53125 -0.109375 C 6.507812 -0.140625 6.488281 -0.171875 6.46875 -0.203125 L 4.578125 -3.546875 L 2.375 -3.546875 L 2.375 -0.359375 C 2.375 -0.191406 2.335938 -0.0859375 2.265625 -0.046875 C 2.191406 -0.00390625 2.132812 0.015625 2.09375 0.015625 L 1.140625 0.015625 C 1.085938 0.015625 1.019531 -0.00390625 0.9375 -0.046875 C 0.863281 -0.0859375 0.828125 -0.191406 0.828125 -0.359375 L 0.828125 -4.734375 C 0.828125 -4.898438 0.863281 -5 0.9375 -5.03125 C 1.019531 -5.070312 1.085938 -5.09375 1.140625 -5.09375 L 5.671875 -5.09375 C 5.941406 -5.09375 6.128906 -5.171875 6.234375 -5.328125 C 6.335938 -5.472656 6.390625 -5.722656 6.390625 -6.078125 C 6.390625 -6.421875 6.335938 -6.671875 6.234375 -6.828125 C 6.128906 -6.984375 5.941406 -7.0625 5.671875 -7.0625 L 1.140625 -7.0625 C 1.085938 -7.0625 1.019531 -7.078125 0.9375 -7.109375 C 0.863281 -7.148438 0.828125 -7.25 0.828125 -7.40625 L 0.828125 -8.234375 C 0.828125 -8.398438 0.863281 -8.5 0.9375 -8.53125 C 1.019531 -8.570312 1.085938 -8.59375 1.140625 -8.59375 L 5.953125 -8.59375 C 6.671875 -8.59375 7.1875 -8.375 7.5 -7.9375 C 7.789062 -7.5 7.941406 -6.878906 7.953125 -6.078125 C 7.941406 -5.265625 7.789062 -4.644531 7.5 -4.21875 C 7.226562 -3.851562 6.835938 -3.640625 6.328125 -3.578125 Z M 8.15625 -0.453125 "/></g></g></g></svg>