<svg id="Calque_1" data-name="Calque 1" xmlns="http://www.w3.org/2000/svg" viewBox="0 0 1920 1080"><defs><style>.cls-1{fill:#e9580b;}.cls-2{fill:none;}.cls-3{fill:#e27b30;}.cls-4{fill:#801e10;}</style></defs><path class="cls-1" d="M1015.26,233.85A215.63,215.63,0,0,1,1036,187.57a187.69,187.69,0,0,0-62.3-15.39v64.31c13.25.45,26.62,1.56,39.86,3.29Q1014.37,236.75,1015.26,233.85Z"/><path class="cls-1" d="M1150.09,361.81c0,5-.19,10-.6,14.9h-62.24a202.73,202.73,0,0,0-32.93-49.94c-.07-.07-.11-.15-.19-.18-.37-.42-.75-.87-1.09-1.32-.56-.68-1.09-1.32-1.62-2-1.24-1.54-2.4-3.16-3.46-4.77-.75-1.13-1.47-2.3-2.14-3.47a29.26,29.26,0,0,1-1.51-2.71c-.22-.37-.45-.79-.64-1.16s-.45-.91-.64-1.36c-.49-1-.94-2-1.35-3.05-.23-.49-.45-1-.64-1.5l-.57-1.58c-.11-.27-.19-.49-.3-.75s-.19-.53-.26-.79a7.75,7.75,0,0,1-.26-.87,15.15,15.15,0,0,1-.57-1.81c-.22-.71-.41-1.43-.6-2.14a33.36,33.36,0,0,1-.83-3.31c-.23-1.06-.45-2.19-.64-3.28-.11-.67-.19-1.35-.26-2s-.23-1.62-.34-2.44c0-.23,0-.46-.08-.68a7.52,7.52,0,0,1-.11-1.24,87,87,0,0,1-.19-13.25A443,443,0,0,1,1129,301l5.94,2.67c1.77.79,3.5,1.66,5.27,2.45l0,0c.6.27,1.17.53,1.73.83A188.69,188.69,0,0,1,1150.09,361.81Z"/><path class="cls-1" d="M1060.38,200.43a190.12,190.12,0,0,0-19,41.92c-.19.64-.38,1.27-.56,1.92a468.69,468.69,0,0,1,85.63,25.85A190.42,190.42,0,0,0,1060.38,200.43Z"/><path class="cls-1" d="M1056.43,376.71H973.72V263.78c11.62.41,23.4,1.35,35.1,2.86a120.34,120.34,0,0,0-.33,12.68v.57c0,.6,0,1.2.07,1.76.08,1.4.15,2.79.26,4.18,0,.19,0,.38,0,.57,0,.41.12.86.15,1.31.23,2.26.49,4.48.87,6.7,0,.38.11.72.15,1.09a0,0,0,0,1,0,0c.11.75.26,1.54.41,2.3s.3,1.54.49,2.29a97.22,97.22,0,0,0,3.09,11.1c0,.08,0,.12,0,.19.27.68.49,1.28.72,2,1,2.63,2.07,5.23,3.23,7.75,0,0,0,0,0,.07v0A98.8,98.8,0,0,0,1033.74,345,179.31,179.31,0,0,1,1056.43,376.71Z"/><path class="cls-1" d="M884.15,287.34c-.3,2.29-.67,4.55-1.16,6.77a70.44,70.44,0,0,1-11.14,25.7c-1,1.47-2.11,2.94-3.24,4.33-.71.9-1.47,1.77-2.22,2.63-2.78,3.13-5.46,6.33-8,9.52-.56.72-1.16,1.47-1.77,2.22a3.69,3.69,0,0,0-.26.38.71.71,0,0,0-.15.15c0,.08-.07.11-.11.19a1.15,1.15,0,0,1-.19.26,194.34,194.34,0,0,0-22.5,37.22h-63c-.41-4.93-.6-9.9-.6-14.9a190.64,190.64,0,0,1,7.34-52.42c.56-.3,1.16-.6,1.73-.87,3.42-1.8,6.88-3.53,10.35-5.23.86-.45,1.73-.86,2.59-1.28s1.77-.83,2.64-1.2c3.38-1.62,6.81-3.16,10.23-4.63,6-2.6,12.08-5.08,18.22-7.38,3-1.16,6-2.25,9-3.31,2.07-.71,4.14-1.43,6.25-2.1,1.8-.61,3.61-1.17,5.41-1.77.68-.23,1.36-.42,2.07-.64l2.37-.72c5.65-1.69,11.37-3.27,17.09-4.74,6.4-1.62,12.91-3.09,19.49-4.4A88.68,88.68,0,0,1,884.15,287.34Z"/><path class="cls-1" d="M946.21,172.18a188,188,0,0,0-61.68,15.11,215.49,215.49,0,0,1,20.91,46.56q.85,2.81,1.64,5.75c12.95-1.66,26.08-2.72,39.13-3.14Z"/><path class="cls-1" d="M946.21,263.78V376.71H864.28A178.87,178.87,0,0,1,887,345a98.79,98.79,0,0,0,19.53-33.31c.56-1.69,1.12-3.38,1.58-5.08.11-.3.18-.64.3-.94a9.37,9.37,0,0,1,.26-1l.34-1.36a10.88,10.88,0,0,0,.26-1.13c.15-.52.27-1,.38-1.54.07-.3.15-.64.19-.94s.11-.49.18-.72.12-.6.16-.86c.22-1.09.41-2.15.6-3.24.3-1.84.56-3.69.75-5.53.08-.41.11-.79.15-1.17a8.42,8.42,0,0,0,.08-1,11,11,0,0,0,.11-1.51.78.78,0,0,0,0-.3,13.57,13.57,0,0,0,.11-1.65c0-.38,0-.72.07-1.1v-.22a122,122,0,0,0-.22-15.73C923.25,265.17,934.8,264.23,946.21,263.78Z"/><path class="cls-1" d="M792.81,271.27a427,427,0,0,1,64.65-22.17c7.31-1.86,14.8-3.56,22.33-5q-.25-.87-.51-1.71a189.08,189.08,0,0,0-19.18-42.27A190.23,190.23,0,0,0,792.81,271.27Z"/><path class="cls-1" d="M1051.69,216.4a177.38,177.38,0,0,0-10.28,25.95c-.19.64-.38,1.27-.56,1.92a468.69,468.69,0,0,1,85.63,25.85c-3-5.48-6.32-10.79-9.84-15.93C1054.4,241.48,1051.73,216.77,1051.69,216.4Z"/><path class="cls-1" d="M1015.26,233.85a198.7,198.7,0,0,1,8.43-22.48c-24,5.08-40.8-.38-50-5.16v30.28c13.25.45,26.62,1.56,39.86,3.29Q1014.37,236.75,1015.26,233.85Z"/><path class="cls-1" d="M907.08,239.6c12.95-1.66,26.08-2.72,39.13-3.14V205.87c-13.53,9.25-33.45,9.08-48.5,7.09a200.2,200.2,0,0,1,7.73,20.89Q906.3,236.66,907.08,239.6Z"/><path class="cls-1" d="M857.46,249.1c7.31-1.86,14.8-3.56,22.33-5q-.25-.87-.51-1.71a175.26,175.26,0,0,0-8.84-22.93c-16.61,21.82-50.41,30.47-66.2,33.42a190,190,0,0,0-11.43,18.43A427,427,0,0,1,857.46,249.1Z"/><path class="cls-1" d="M932.21,376.71H901.8c4-25.89,17.31-24.35,17.31-24.35C924.64,350.63,929.57,361.39,932.21,376.71Z"/><path class="cls-1" d="M800.3,330.8c3.54-4,6.89-8.08,10.17-12.26,4.71-6,12.43-14.09,19.85-14.09,11.79,0,17.28,10.22,8.64,20.43S813,358.67,809.89,372C806.89,384.78,763.73,371.73,800.3,330.8Z"/><path class="cls-1" d="M1060.38,200.43c-1,1.56-2,3.39-3.19,5.46,0,0,13.53,26.57,48.49,33.89A191.15,191.15,0,0,0,1060.38,200.43Z"/><path class="cls-1" d="M864.76,208.17c-1.73-3.18-3.33-5.91-4.66-8.09a191,191,0,0,0-41.5,34.68C829.49,233.24,853.51,227.74,864.76,208.17Z"/><path class="cls-1" d="M884.53,187.29c1.15,1.93,2.42,4.11,3.75,6.52h0s40.25,9.86,57.93-14.39v-7.24A188,188,0,0,0,884.53,187.29Z"/><path class="cls-1" d="M1032.24,194.13h0c1.33-2.43,2.6-4.63,3.76-6.56a187.69,187.69,0,0,0-62.3-15.39v7.24S993,205.59,1032.24,194.13Z"/><path class="cls-1" d="M1018.08,376.71H987.71c2.64-15.32,7.57-26.08,13.1-24.35C1000.81,352.36,1014.17,350.82,1018.08,376.71Z"/><path class="cls-1" d="M1119.61,330.8c-3.54-4-6.89-8.08-10.17-12.26-4.71-6-12.44-14.09-19.85-14.09-11.79,0-17.29,10.22-8.64,20.43S1106.87,358.67,1110,372C1113,384.78,1156.18,371.73,1119.61,330.8Z"/><path class="cls-1" d="M973.7,324s23.91-31.62,44.37-2.82c-7.64-16.31-10.79-34.76-9.23-54.58-11.71-1.49-23.5-2.46-35.14-2.87Z"/><path class="cls-1" d="M1135,303.62,1129,301a443.51,443.51,0,0,0-93-29.87c-1.27,21.71,4.82,40.36,18.12,55.49l.08-.12s-36.53-64.52,86-20.35Z"/><path class="cls-1" d="M911.86,266.63a110.51,110.51,0,0,1-5.36,45s34.6-19.9,39.71,15.91V263.8C934.79,264.22,923.27,265.17,911.86,266.63Z"/><path class="cls-1" d="M867.25,299c5.81,16.71-9.06,37.51-11.33,40.54q4.92-6.47,10.46-12.73c13.41-15.16,19.55-33.87,18.28-55.66-6.57,1.31-13.13,2.79-19.53,4.41a395.24,395.24,0,0,0-86.23,33C791.67,304.37,861.54,282.54,867.25,299Z"/><path class="cls-1" d="M960,91.83C808.59,91.83,685.84,214.58,685.84,366S808.59,640.15,960,640.15,1234.16,517.4,1234.16,366,1111.41,91.83,960,91.83Zm0,521.75C823.27,613.58,712.4,502.72,712.4,366S823.27,118.39,960,118.39,1207.59,229.26,1207.59,366,1096.73,613.58,960,613.58Z"/><rect class="cls-2" x="769.43" y="172.17" width="381.12" height="204.55"/><rect class="cls-1" x="940.85" y="410.56" width="38.3" height="150.7"/><rect class="cls-1" x="940.85" y="485.91" width="38.3" height="75.35"/><rect class="cls-3" x="940.85" y="503.48" width="38.3" height="57.78"/><rect class="cls-1" x="826.88" y="410.56" width="38.3" height="103.69"/><rect class="cls-3" x="826.88" y="472.63" width="38.3" height="41.62"/><path class="cls-1" d="M784.86,476.55l.09.31a2.81,2.81,0,0,0-.1-.31Z"/><rect class="cls-1" x="769.9" y="410.56" width="38.3" height="47.11"/><rect class="cls-3" x="769.9" y="434.12" width="38.3" height="24.1"/><rect class="cls-1" x="997.83" y="410.56" width="38.3" height="129.1"/><rect class="cls-3" x="997.83" y="472.73" width="38.3" height="66.93"/><rect class="cls-4" x="997.83" y="506.2" width="38.3" height="33.46"/><rect class="cls-1" x="1054.81" y="410.56" width="38.3" height="98.48"/><rect class="cls-3" x="1054.81" y="457.1" width="38.3" height="51.94"/><rect class="cls-4" x="1054.81" y="483.07" width="38.3" height="25.97"/><path class="cls-1" d="M1135.11,426l0,0,0,0Z"/><rect class="cls-1" x="1111.79" y="410.56" width="38.3" height="21.74"/><rect class="cls-1" x="883.86" y="410.56" width="38.3" height="136.47"/><rect class="cls-3" x="883.86" y="502.08" width="38.3" height="44.96"/><rect class="cls-4" x="883.86" y="529.45" width="38.3" height="17.59"/><rect class="cls-4" x="940.85" y="532.37" width="38.3" height="28.89"/><path class="cls-1" d="M778.19,768.22v-47h23V840.27h-23v-49H715.08v49h-23V721.18h23v47Z"/><path class="cls-1" d="M875.65,842.26a51.69,51.69,0,0,1-26-6.55,47.38,47.38,0,0,1-18.07-18.07,51.69,51.69,0,0,1-6.55-26V769.81a51.69,51.69,0,0,1,6.55-26,47.36,47.36,0,0,1,18.07-18.06,51.59,51.59,0,0,1,26-6.55h29.77a51.61,51.61,0,0,1,26,6.55,47.33,47.33,0,0,1,18.06,18.06,51.59,51.59,0,0,1,6.55,26v21.83a51.59,51.59,0,0,1-6.55,26,47.36,47.36,0,0,1-18.06,18.07,51.72,51.72,0,0,1-26,6.55Zm26.39-23a32.08,32.08,0,0,0,15.88-4A28,28,0,0,0,929,804.15a32.24,32.24,0,0,0,4-15.88V773.18a32.17,32.17,0,0,0-4-15.87,28.06,28.06,0,0,0-11.12-11.12,32.18,32.18,0,0,0-15.88-4H879a32.24,32.24,0,0,0-15.88,4A28,28,0,0,0,852,757.31a32.06,32.06,0,0,0-4,15.87v15.09a32.13,32.13,0,0,0,4,15.88,28,28,0,0,0,11.11,11.11,32.13,32.13,0,0,0,15.88,4Z"/><path class="cls-1" d="M1022.52,842.26a51.69,51.69,0,0,1-26-6.55,47.29,47.29,0,0,1-18.06-18.07,51.59,51.59,0,0,1-6.55-26V769.81a51.59,51.59,0,0,1,6.55-26,47.26,47.26,0,0,1,18.06-18.06,51.59,51.59,0,0,1,26-6.55h29.77a51.59,51.59,0,0,1,26,6.55,47.36,47.36,0,0,1,18.07,18.06,51.69,51.69,0,0,1,6.55,26v21.83a51.69,51.69,0,0,1-6.55,26,47.38,47.38,0,0,1-18.07,18.07,51.69,51.69,0,0,1-26,6.55Zm26.4-23a32.13,32.13,0,0,0,15.88-4,28.07,28.07,0,0,0,11.11-11.11,32.13,32.13,0,0,0,4-15.88V773.18a32.06,32.06,0,0,0-4-15.87,28.1,28.1,0,0,0-11.11-11.12,32.24,32.24,0,0,0-15.88-4h-23a32.17,32.17,0,0,0-15.87,4,28.06,28.06,0,0,0-11.12,11.12,32.06,32.06,0,0,0-4,15.87v15.09a32.13,32.13,0,0,0,4,15.88A28,28,0,0,0,1010,815.26a32.06,32.06,0,0,0,15.87,4Z"/><path class="cls-1" d="M1212.76,726.94a41.83,41.83,0,0,1,17.07,16,44.82,44.82,0,0,1,6.06,23.32,45.39,45.39,0,0,1-6.06,23.42,41.67,41.67,0,0,1-17.07,16.08q-11,5.75-25.5,5.75h-37.51v28.78h-23V721.18h60.54Q1201.75,721.18,1212.76,726.94Zm-28.88,61.33q13.11,0,20.55-5.46t7.44-16.57q0-10.92-7.44-16.48t-20.55-5.55h-34.13v44.06Z"/><path class="cls-1" d="M673.2,883.36v23h-48v96.06h-23V906.38h-48v-23Z"/><path class="cls-1" d="M797.55,949.15a40.77,40.77,0,0,1-13,15.38l17.66,37.91h-25l-13.89-29.57a50.5,50.5,0,0,1-9.73.8H716.07v28.77h-23V883.36h60.53q14.49,0,25.51,5.75a42,42,0,0,1,17.07,16,45,45,0,0,1,6.05,23.32A46.23,46.23,0,0,1,797.55,949.15Zm-48.33,1.29q13.89,0,21.43-5.46t7.55-16.57q0-11.11-7.65-16.57t-21.33-5.46H716.07v44.06Z"/><path class="cls-1" d="M890.53,881.37a51.65,51.65,0,0,1,26,6.55A47.47,47.47,0,0,1,934.6,906a51.74,51.74,0,0,1,6.55,26v70.46h-23v-29h-73v29h-23V932a51.64,51.64,0,0,1,6.55-26,47.33,47.33,0,0,1,18.06-18.06,51.59,51.59,0,0,1,26-6.55Zm-45.45,69.07h73V935.36a32.1,32.1,0,0,0-4-15.88A28.16,28.16,0,0,0,903,908.36a32.2,32.2,0,0,0-15.88-4H876a32.16,32.16,0,0,0-15.87,4,28.12,28.12,0,0,0-11.12,11.12,32.1,32.1,0,0,0-4,15.88Z"/><path class="cls-1" d="M1063,928a20.38,20.38,0,0,0-8.63-17.16q-8.64-6.45-22.33-6.45H1015a32.23,32.23,0,0,0-15.88,4A28.1,28.1,0,0,0,988,919.48a32.1,32.1,0,0,0-4,15.88v15.08a32.08,32.08,0,0,0,4,15.88,28.1,28.1,0,0,0,11.11,11.12,32.24,32.24,0,0,0,15.88,4h17.07q13.7,0,22.33-6.45a20.4,20.4,0,0,0,8.63-17.17h25q0,21.44-13.3,34t-40.29,12.6h-22.82a51.65,51.65,0,0,1-26-6.55,47.47,47.47,0,0,1-18.06-18.06,51.69,51.69,0,0,1-6.55-26V932a51.74,51.74,0,0,1,6.55-26,47.47,47.47,0,0,1,18.06-18.06,51.65,51.65,0,0,1,26-6.55h22.82q27,0,40.29,12.6t13.3,34Z"/><path class="cls-1" d="M1217.63,952.43q4.75,6.54,4.56,16.27v33.74h-24V966.72q0-7.35-7.14-10.32t-20.84-3h-35.33v49h-23V883.36h23v47h35.33q13.1,0,20.54-3.58t7.44-11.11V883.36h24V916.9q0,9.52-4.76,16.08a29.13,29.13,0,0,1-13.7,9.92Q1212.86,945.89,1217.63,952.43Z"/><path class="cls-1" d="M1357.26,949.15a40.77,40.77,0,0,1-13,15.38l17.66,37.91h-25L1323,972.87a50.5,50.5,0,0,1-9.73.8h-37.51v28.77h-23V883.36h60.53q14.49,0,25.51,5.75a42,42,0,0,1,17.07,16,45,45,0,0,1,6.05,23.32A46.23,46.23,0,0,1,1357.26,949.15Zm-48.33,1.29q13.89,0,21.43-5.46t7.55-16.57q0-11.11-7.65-16.57t-21.33-5.46h-33.15v44.06Z"/></svg>